<svg xmlns="http://www.w3.org/2000/svg" width="484.967" height="1009.149"><polygon opacity=".15" fill="#8CC63F" points="311.443,849.812 451.057,850.881 452.127,907.582 316.793,907.582 315.99,891.535 320.805,876.824 317.328,866.661 311.711,854.626"/><path opacity=".15" fill="#8CC63F" d="M32.218 874.418v32.362s255.423 5.617 255.423 1.07l-.465-15.828-3.814-6.854-8.024-4.866-1.338-6.419v-7.756l6.687-4.904 3.23-5.26v-10.698l-44.687 29.688-207.012-.535z"/><polygon opacity=".15" fill="#8CC63F" points="232.077,59.78 232.077,92.568 229.016,99.304 219.438,107.295 213.401,121.347 216.769,138.585 225.035,145.228 231.158,152.881 231.465,173.394 231.465,247.178 32.463,247.79 33.075,64.708"/><path fill="#6C3054" d="M245.668 60.813l-.135-4.998-5.997.161.135 4.998 5.997-.161zm209.139-9.859c-.483-.471-1.134-.731-1.812-.708l-192.898 5.18v-.433h-5v.566l-3.565.096.135 4.998 3.431-.093v29.314c0 5.16 2.343 9.938 6.384 13.071l.218.171c6.896 4.919 11.012 12.9 11.012 21.35 0 8.451-4.116 16.434-11.012 21.353l-.174.136c-4.085 3.169-6.428 7.946-6.428 13.105v601.778l.019.339c.196 7.413 1.851 14.397 4.919 20.758 2.446 5.07 4.927 8.737 7.584 11.211 2.363 2.198 5.258 4.387 8.364 6.735 3.518 2.655 7.154 5.402 10.811 8.731 2.46 2.24 4.612 4.431 6.579 6.697 8.451 9.729 13.448 19.784 14.851 29.883.104.762.186 1.563.247 2.453l.027.256c.154 2.853.739 5.955 1.739 9.22.709 2.319 1.857 4.411 3.09 6.656 1.329 2.421 2.703 4.924 3.419 7.71 1.229 4.776.152 9.514-1.063 13.518-1.425 4.697-1.765 9.664-1.9 13.468-.078 2.204-.088 4.434-.09 6.63h-.004v5h138.922c1.38 0 2.499-1.118 2.5-2.499l.453-854.858c-.003-.675-.275-1.321-.758-1.792zm-4.697 854.15h-131.419c.002-2.15.011-4.33.086-6.451.126-3.5.431-8.049 1.689-12.194 1.416-4.667 2.657-10.243 1.12-16.215-.872-3.396-2.4-6.179-3.895-8.9-1.088-1.983-2.116-3.856-2.675-5.683-.313-1.025-.563-2.017-.784-2.991h135.905l-.027 52.434zm.031-57.435h-136.65l-.04-.462c-.068-.967-.159-1.85-.275-2.698-1.539-11.077-6.932-22.004-16.028-32.477-2.096-2.415-4.382-4.743-6.987-7.116-3.827-3.483-7.558-6.301-11.204-9.054-2.96-2.238-5.756-4.352-7.932-6.376-2.194-2.042-4.315-5.223-6.486-9.723-2.259-4.684-3.651-9.759-4.185-15.114h189.831l-.044 83.02zm.047-88.02h-190.091v-83.02h190.135l-.044 83.02zm.046-88.019h-190.137v-83.021h190.182l-.045 83.021zm.047-88.021h-190.184v-83.02h190.229l-.045 83.02zm.047-88.019h-190.231v-83.02h190.275l-.044 83.02zm.047-88.02h-190.278v-83.02h190.322l-.044 83.02zm.046-88.019h-190.324v-83.02h190.368l-.044 83.02zm.047-88.02h-190.371v-72.471c0-3.603 1.638-6.939 4.499-9.16l.068-.055c.592-.425 1.161-.873 1.719-1.335h184.129l-.044 83.021zm.047-88.02h-179.306c4.156-5.401 6.501-12.088 6.501-19.044 0-10.037-4.876-19.518-13.047-25.376l-.074-.061c-2.854-2.215-4.492-5.552-4.492-9.155v-29.447l190.465-5.114-.047 88.197zm-168.895 738.055c-3.84-1.465-6.42-5.192-6.42-9.277 0-3.453 1.763-6.601 4.715-8.419 5.74-3.534 8.641-9.451 7.757-15.828-.843-6.062-4.2-12.509-9.979-19.162-1.438-1.657-3.037-3.281-4.886-4.963-2.969-2.703-6.069-5.044-9.351-7.521-3.362-2.538-6.839-5.163-9.992-8.1-4.569-4.253-8.535-9.934-12.122-17.364-4.254-8.82-6.591-18.433-6.946-28.57l-.034-.338-.014-.148v-602.815c0-5.157-2.343-9.934-6.449-13.121l-.154-.12c-6.894-4.92-11.01-12.902-11.01-21.353 0-8.448 4.116-16.43 11.01-21.35l.176-.137c4.085-3.171 6.428-7.947 6.428-13.105v-28.758l.066-.002-.066-2.463v-2.969h-5v.566l-196.781 5.285c-1.353.036-2.431 1.142-2.433 2.495l-.471 293.92c-.001.664.262 1.301.73 1.771.47.47 1.105.733 1.77.733h30.419v28.39h-29.947c-1.381 0-2.5 1.119-2.5 2.5v516.261c0 1.381 1.119 2.5 2.5 2.5h257.235v-16.621c0-5.269-3.319-10.058-8.251-11.917zm-246.488-815.099l194.216-5.216v28.624c0 3.602-1.638 6.939-4.552 9.202l-.017.014c-8.17 5.86-13.045 15.341-13.045 25.376 0 10.04 4.878 19.524 13.052 25.385l.067.054c2.856 2.217 4.494 5.554 4.494 9.155v85.382h-194.5l.285-177.976zm-.293 182.975h194.509v84.706h-194.645l.136-84.706zm.297 144.401h29.948c1.381 0 2.5-1.119 2.5-2.5v-33.39c0-1.381-1.119-2.5-2.5-2.5h-30.415l.026-16.305h194.652v84.704h-194.211v-30.009zm0 35.01h194.212v84.705h-194.212v-84.705zm0 89.705h194.212v84.705h-194.212v-84.705zm0 89.705h194.212v84.705h-194.212v-84.705zm0 89.705h194.212v63.907c0 .269.019.54.057.81.167 4.544.73 8.983 1.641 13.312l-10.006 6.678h-185.904v-84.707zm0 89.706h187.419l9.762-6.516c1.17 4.105 2.666 8.099 4.522 11.946 3.862 8.001 8.186 14.168 13.219 18.852 3.341 3.111 6.922 5.814 10.385 8.43 3.188 2.406 6.199 4.68 8.999 7.229 1.702 1.55 3.166 3.035 4.476 4.544 3.307 3.807 5.699 7.473 7.182 10.96l-42.616 29.259h-203.348v-84.704zm249.735 117.43h-249.735v-27.727h204.897l42.574-29.23.111.582c.604 4.353-1.425 8.421-5.425 10.884-4.442 2.735-7.094 7.475-7.094 12.677 0 6.145 3.873 11.751 9.647 13.953 3.005 1.132 5.023 4.041 5.023 7.24v11.621zm-24.774-892.657h-5v3h5v-3zm0 19.949h-5v5.649h5v-5.649zm0-11.299h-5v5.649h5v-5.649zm0 22.597h-5v5.649h5v-5.649zm-25.749.494h-5v5.748h5v-5.748zm0-22.993h-5v5.748h5v-5.748zm0 11.496h-5v5.748h5v-5.748zm0-20.244h-5v3h5v-3zm10.508 124.762c6.647 0 12.055-5.407 12.055-12.053 0-6.647-5.407-12.056-12.055-12.056s-12.055 5.408-12.055 12.056c.001 6.646 5.408 12.053 12.055 12.053zm0-19.108c3.89 0 7.055 3.165 7.055 7.056 0 3.889-3.165 7.053-7.055 7.053s-7.055-3.164-7.055-7.053c.001-3.891 3.166-7.056 7.055-7.056z"/><circle fill="#6C3054" cx="131.602" cy="830.024" r="16.472"/><circle opacity=".7" fill="#8CC63F" cx="131.602" cy="740.146" r="16.472"/><path opacity=".7" fill="#8CC63F" d="M148.074 650.271c0 9.096-7.375 16.471-16.473 16.471-9.099 0-16.472-7.375-16.472-16.471 0-9.101 7.373-16.474 16.472-16.474 9.098.001 16.473 7.374 16.473 16.474z"/><circle opacity=".7" fill="#8CC63F" cx="131.602" cy="470.515" r="16.472"/><circle fill="#6C3054" cx="131.602" cy="380.636" r="16.472"/><circle fill="#6C3054" cx="355.329" cy="452.784" r="16.474"/><text transform="translate(346.096 459.504)" fill="#fff" font-family="'CaeciliaLTStd-Heavy'" font-size="18">12</text><circle fill="#6C3054" cx="355.329" cy="364.589" r="16.474"/><text transform="translate(346.096 371.31)" fill="#fff" font-family="'CaeciliaLTStd-Heavy'" font-size="18">11</text><circle opacity=".7" fill="#8CC63F" cx="355.329" cy="276.396" r="16.474"/><text transform="translate(346.096 283.116)" fill="#fff" font-family="'CaeciliaLTStd-Heavy'" font-size="18">10</text><circle opacity=".7" fill="#8CC63F" cx="355.329" cy="188.201" r="16.474"/><text transform="translate(351.713 194.921)" fill="#fff" font-family="'CaeciliaLTStd-Heavy'" font-size="18">9</text><path fill="#6C3054" d="M371.803 100.01c0 9.096-7.377 16.471-16.474 16.471-9.099 0-16.474-7.375-16.474-16.471 0-9.101 7.375-16.474 16.474-16.474 9.097 0 16.474 7.373 16.474 16.474z"/><text transform="translate(350.712 106.728)" fill="#fff" font-family="'CaeciliaLTStd-Heavy'" font-size="18">8</text><circle opacity=".6" fill="#ED1C24" cx="355.329" cy="540.978" r="16.474"/><circle fill="#6C3054" cx="355.329" cy="629.172" r="16.474"/><text transform="translate(346.096 635.893)" fill="#fff" font-family="'CaeciliaLTStd-Heavy'" font-size="18">14</text><path opacity=".7" fill="#8CC63F" d="M371.803 717.367c0 9.096-7.377 16.471-16.474 16.471-9.099 0-16.474-7.375-16.474-16.471 0-9.101 7.375-16.474 16.474-16.474 9.097.001 16.474 7.374 16.474 16.474z"/><text transform="translate(346.096 724.086)" fill="#fff" font-family="'CaeciliaLTStd-Heavy'" font-size="18">15</text><circle opacity=".6" fill="#ED1C24" cx="355.329" cy="805.56" r="16.474"/><text transform="translate(346.096 812.28)" fill="#fff" font-family="'CaeciliaLTStd-Heavy'" font-size="18">16</text><circle opacity=".7" fill="#8CC63F" cx="131.604" cy="560.393" r="16.473"/><text transform="translate(126.984 835.744)" fill="#fff" font-family="'CaeciliaLTStd-Heavy'" font-size="18">1</text><text transform="translate(126.984 656.305)" fill="#fff" font-family="'CaeciliaLTStd-Heavy'" font-size="18">3</text><text transform="translate(126.984 476.55)" fill="#fff" font-family="'CaeciliaLTStd-Heavy'" font-size="18">5</text><text transform="translate(126.984 386.673)" fill="#fff" font-family="'CaeciliaLTStd-Heavy'" font-size="18">6</text><text transform="translate(126.984 566.428)" fill="#fff" font-family="'CaeciliaLTStd-Heavy'" font-size="18">4</text><text transform="translate(54.993 942.455)" fill="#fff" font-family="'ProximaNova-Bold'" font-size="16" letter-spacing="4">RIGGS ROAD</text><circle fill="#6C3054" cx="425.551" cy="940.114" r="10"/><circle opacity=".7" fill="#8CC63F" cx="425.551" cy="940.114" r="10"/><circle fill="#6C3054" cx="425.551" cy="970.132" r="10"/><circle opacity=".6" fill="#ED1C24" cx="425.551" cy="999.148" r="10"/><text transform="translate(351.603 943.946)"><tspan x="0" y="0" fill="#B3B3B3" font-family="'ProximaNova-Bold'" font-size="10" letter-spacing="1">AVAILABLE</tspan><tspan x="4.42" y="30" fill="#B3B3B3" font-family="'ProximaNova-Bold'" font-size="10" letter-spacing="1">RESERVED</tspan><tspan x="27.91" y="60" fill="#B3B3B3" font-family="'ProximaNova-Bold'" font-size="10" letter-spacing="1">SOLD</tspan></text><text transform="translate(116.043 161.453)"><tspan x="0" y="0" fill="#fff" font-family="'ProximaNova-Bold'" font-size="16" letter-spacing="4">THE</tspan><tspan x="-30.976" y="19.2" fill="#fff" font-family="'ProximaNova-Bold'" font-size="16" letter-spacing="4">HOLLOWS</tspan><tspan x="-7.064" y="38.4" fill="#fff" font-family="'ProximaNova-Bold'" font-size="16" letter-spacing="4">PARK</tspan></text><text transform="matrix(0 1 -1 0 4 439.565)" fill="#fff" font-family="'ProximaNova-Bold'" font-size="16" letter-spacing="4">182ND STREET</text><text transform="matrix(0 1 -1 0 471.574 440.524)" fill="#fff" font-family="'ProximaNova-Bold'" font-size="16" letter-spacing="4">183RD STREET</text><path fill="#fff" d="M147.548 103.885c-3.626-3.627-8.448-5.624-13.577-5.624s-9.95 1.997-13.577 5.624-5.623 8.449-5.623 13.576c0 5.129 1.996 9.953 5.623 13.578 3.627 3.627 8.448 5.624 13.577 5.624s9.951-1.997 13.577-5.624c3.627-3.625 5.624-8.449 5.624-13.578 0-5.127-1.997-9.949-5.624-13.576zm-13.577 31.676c-9.979 0-18.098-8.118-18.098-18.1 0-9.979 8.118-18.098 18.098-18.098s18.098 8.119 18.098 18.098c-.001 9.981-8.119 18.1-18.098 18.1zm14.078-25.864c-.045-.148-.116-.287-.208-.416-.073-.096-.156-.185-.244-.26-.394-.344-.92-.52-1.564-.52-2.305 0-5.506 2.194-7.784 5.336-.373.514-.705 1.029-.989 1.533l-.027.021-3.745.806-.043-.016-.007-.045c1.272-2.98 3.196-5.49 5.563-7.258l.007-.007c.06-.047.095-.093.093-.135l-.054-.079c-.09-.069-.19-.101-.301-.101-.122 0-.233.038-.305.071-.504.269-1.009.585-1.49.935l-.009.005-.342.135c-.65.252-1.379.378-2.164.378-.586 0-1.188-.07-1.791-.21l-.103-.033c1.238-1.26 4.086-3.806 7.534-4.618 0 0 .335-.058.376-.306 0 0 .052-.317-.506-.225-3.586.597-6.882 3.351-8.431 4.829l-.305-.117c-.193-.081-.385-.167-.565-.26-.085-.047-2.063-1.145-4.201-1.145l-.264.006-.139.008-.041.002-.161.016-.032.004-.01.001c-.987.121-1.875.569-2.497 1.263-.549.616-.829 1.367-.787 2.114.079 1.447 1.359 2.539 3.044 2.593h.085l.006.002h.035c.249 0 .503-.024.759-.071 1.532-.228 3.038-.973 4.243-2.1l.285-.281.007-.007.041-.045.159-.17.545-.584.041-.012c.536.117 1.092.179 1.654.179.76 0 1.507-.113 2.16-.325l.054.019-.008.054c-1.274 1.194-2.351 2.628-3.198 4.263l-.004.004c-.251.528-.511 1.082-.773 1.646l-.028.025-2.669.571-.05-.026c-.45-1.113-1.559-1.804-2.896-1.804h-.06l-.203.007h-.015c-1.571.142-3.133.839-4.396 1.969-1.542 1.373-2.401 3.158-2.359 4.899.031 1.323.595 2.493 1.589 3.298.868.703 1.998 1.076 3.268 1.076 1.779 0 3.608-.727 5.021-1.995.194-.174.388-.365.57-.567l.009-.008c1.706-1.821 2.604-4.238 2.612-4.265.473-1.288 1.028-2.706 1.035-2.722l.006-.01.023-.062.021-.052.031-.028 3.647-.782.194-.01c-.436 1.237-1.107 4.083 1.109 5.821-.226.481-.552 1.196-1.015 2.238-1.125 2.526-3.821 6.038-9.089 6.059 0 0-.519 0-.725.252 0 0-.262.365.514.399 2.084.068 7.668-.419 10.59-7.142 0 0 .208-.52.611-1.254l.27.125s2.855 1.302 4.977-1.072c0 0 1.619-1.834.218-3.349 0 0-2.714-2.655-5.829 2.691-1.747-1.817.037-4.745.367-5.251.535-.09 1.068-.202 1.595-.335 3.46-.87 6.296-2.5 7.222-4.148.292-.512.369-.991.236-1.425zm-17.534.84l-.087.087-.342.291-.045.046h-.007c-1.204.979-2.671 1.564-4.103 1.615h-.001l-.012-.002h-.045c-1.19-.038-2.093-.718-2.146-1.62-.027-.464.165-.938.542-1.336.544-.578 1.407-.923 2.308-.923l.181.004.272.025c.436.077 1.172.314 2.303.952.357.247.923.592 1.25.787l-.068.074zm-1.98 7.345l.033.004.021.027c.098.413.055.876-.117 1.306-.341.843-1.167 1.473-2.009 1.53l-.183.007c-.31 0-.549-.064-.757-.21-.065-.049-.391-.316-.361-.712.025-.357.336-.703.916-1.024.013-.007 1.169-.6 2.457-.928zm2.758-.528c-.359.785-.584 1.299-.587 1.305-1.626 3.55-2.627 4.467-2.67 4.502l-.002.004-.009.011-.086.095c-1.167 1.232-2.77 1.967-4.287 1.967-.892 0-1.691-.265-2.312-.764-.763-.614-1.18-1.521-1.174-2.552.01-1.485.863-3.038 2.282-4.153 1.076-.844 2.336-1.311 3.543-1.311.645 0 1.257.137 1.773.395l.003.002c.2.099.372.235.509.407l.009.041-.032.028c-.694.172-1.995.545-2.909 1.078l-.044.027-.004.004c-1.004.6-1.497 1.554-1.174 2.267.219.483.785.772 1.513.772.44 0 .907-.105 1.351-.307.153-.069.303-.148.446-.239l.011-.006c.924-.579 1.536-1.499 1.64-2.47.022-.22.019-.44-.01-.658l.035-.047 2.136-.461.043.017.006.046zm9.913 2.107l.034-.033.064-.061.002-.002c.709-.65 1.625-.805 2.077-.341.468.478.265 1.432-.454 2.134l-.048.045c-1.191 1.231-3.03.469-3.03.469l-.3-.145c.437-.675.99-1.415 1.655-2.066zm-1.114-4.706l-.552.131h-.009l-.036-.019v-.051c.241-.347.506-.702.787-1.052 1.808-2.259 3.929-3.908 5.532-4.306l.302-.027c.542 0 .844.247.849.691.006 1.681-2.884 3.628-6.873 4.633z"/><circle opacity=".2" fill="#8CC63F" cx="427.498" cy="156.863" r="17.345"/><circle opacity=".2" fill="#8CC63F" cx="291.11" cy="178.37" r="17.345"/><circle opacity=".2" fill="#8CC63F" cx="443.754" cy="242.578" r="17.345"/><circle opacity=".2" fill="#8CC63F" cx="442.498" cy="344.078" r="17.345"/><circle opacity=".2" fill="#8CC63F" cx="265.498" cy="426.078" r="17.345"/><circle opacity=".1" fill="#D9E021" cx="426.843" cy="427.136" r="7.678"/><circle opacity=".1" fill="#D9E021" cx="434.176" cy="423.803" r="7.678"/><circle opacity=".1" fill="#D9E021" cx="437.82" cy="453.655" r="7.678"/><circle opacity=".1" fill="#D9E021" cx="76.82" cy="344.988" r="7.678"/><circle opacity=".1" fill="#D9E021" cx="60.343" cy="350.27" r="7.678"/><circle opacity=".1" fill="#D9E021" cx="85.153" cy="352.667" r="7.678"/><circle opacity=".1" fill="#D9E021" cx="50.986" cy="406.333" r="7.678"/><circle opacity=".1" fill="#D9E021" cx="70.986" cy="420" r="7.678"/><path opacity=".1" fill="#D9E021" d="M77.175 531.977c0 6.77-5.486 12.256-12.254 12.256-6.77 0-12.256-5.486-12.256-12.256 0-6.766 5.486-12.254 12.256-12.254 6.767 0 12.254 5.488 12.254 12.254z"/><path opacity=".1" fill="#D9E021" d="M379.839 670.643c0 6.77-5.486 12.256-12.254 12.256-6.77 0-12.256-5.486-12.256-12.256 0-6.766 5.486-12.254 12.256-12.254 6.768 0 12.254 5.488 12.254 12.254z"/><path opacity=".1" fill="#D9E021" d="M296.172 762.977c0 6.77-5.486 12.256-12.254 12.256-6.77 0-12.256-5.486-12.256-12.256 0-6.766 5.486-12.254 12.256-12.254 6.768 0 12.254 5.488 12.254 12.254z"/><circle opacity=".1" fill="#D9E021" cx="339.833" cy="869.811" r="13.088"/><circle opacity=".1" fill="#D9E021" cx="356.333" cy="869.811" r="8.588"/><path opacity=".1" fill="#D9E021" d="M198.505 778.757c0 6.77-5.486 12.256-12.254 12.256-6.77 0-12.256-5.486-12.256-12.256 0-6.766 5.486-12.254 12.256-12.254 6.768 0 12.254 5.488 12.254 12.254z"/><path opacity=".1" fill="#D9E021" d="M88.176 529.31c0 4.929-3.994 8.923-8.921 8.923-4.929 0-8.923-3.994-8.923-8.923 0-4.925 3.994-8.921 8.923-8.921 4.927 0 8.921 3.996 8.921 8.921z"/><path opacity=".1" fill="#D9E021" d="M360.176 671.312c0 4.929-3.994 8.923-8.921 8.923-4.929 0-8.923-3.994-8.923-8.923 0-4.925 3.994-8.921 8.923-8.921 4.927 0 8.921 3.996 8.921 8.921z"/><path opacity=".1" fill="#D9E021" d="M287.176 777.643c0 4.929-3.994 8.923-8.921 8.923-4.929 0-8.923-3.994-8.923-8.923 0-4.925 3.994-8.921 8.923-8.921 4.927 0 8.921 3.996 8.921 8.921z"/><path opacity=".1" fill="#D9E021" d="M219.176 702.089c0 4.929-3.994 8.923-8.921 8.923-4.929 0-8.923-3.994-8.923-8.923 0-4.925 3.994-8.921 8.923-8.921 4.927 0 8.921 3.996 8.921 8.921z"/><path opacity=".1" fill="#D9E021" d="M206.509 704.071c0 4.929-3.994 8.923-8.921 8.923-4.929 0-8.923-3.994-8.923-8.923 0-4.925 3.994-8.921 8.923-8.921 4.927 0 8.921 3.996 8.921 8.921z"/><circle opacity=".1" fill="#D9E021" cx="422.986" cy="338.334" r="7.678"/><circle opacity=".1" fill="#D9E021" cx="445.498" cy="266.334" r="11.178"/><circle opacity=".1" fill="#D9E021" cx="419.41" cy="239.501" r="11.178"/><circle opacity=".1" fill="#D9E021" cx="398.663" cy="240.501" r="11.178"/><circle opacity=".1" fill="#D9E021" cx="381.744" cy="235.001" r="11.178"/><circle opacity=".1" fill="#D9E021" cx="366.204" cy="238.14" r="11.178"/><circle opacity=".1" fill="#D9E021" cx="277.153" cy="69.958" r="10.178"/><circle opacity=".1" fill="#D9E021" cx="303.928" cy="63.69" r="12.178"/><circle opacity=".1" fill="#D9E021" cx="278.606" cy="326.807" r="12.505"/><path opacity=".1" fill="#D9E021" d="M70.851 75.355c0 6.033-4.891 10.924-10.922 10.924-6.034 0-10.924-4.891-10.924-10.924 0-6.03 4.89-10.922 10.924-10.922 6.031.001 10.922 4.892 10.922 10.922z"/><circle opacity=".1" fill="#D9E021" cx="74.074" cy="74.44" r="7.678"/><circle opacity=".2" fill="#8CC63F" cx="441.999" cy="533.076" r="17.345"/><circle opacity=".2" fill="#8CC63F" cx="443.003" cy="651.143" r="17.345"/><circle opacity=".2" fill="#8CC63F" cx="443.501" cy="730.643" r="17.345"/><circle opacity=".1" fill="#8CC63F" cx="289.127" cy="682.028" r="23.641"/><path opacity=".1" fill="#8CC63F" d="M229.524 518.938c0 14.949-12.116 27.065-27.063 27.065-14.948 0-27.064-12.116-27.064-27.065 0-14.944 12.116-27.062 27.064-27.062 14.947 0 27.063 12.118 27.063 27.062z"/><path opacity=".1" fill="#8CC63F" d="M76.051 178.368c0 18.539-15.026 33.565-33.563 33.565-18.538 0-33.564-15.026-33.564-33.565 0-18.534 15.026-33.562 33.564-33.562 18.536 0 33.563 15.028 33.563 33.562z"/><path opacity=".1" fill="#8CC63F" d="M299.133 159.702c0 14.12-11.444 25.565-25.563 25.565-14.12 0-25.564-11.445-25.564-25.565 0-14.116 11.444-25.562 25.564-25.562 14.118 0 25.563 11.446 25.563 25.562z"/><path opacity=".1" fill="#8CC63F" d="M291.75 263.702c0 14.12-11.444 25.565-25.563 25.565-14.12 0-25.564-11.445-25.564-25.565 0-14.116 11.444-25.562 25.564-25.562 14.119 0 25.563 11.446 25.563 25.562z"/><path opacity=".1" fill="#8CC63F" d="M294.896 222.464c0 14.12-11.444 25.565-25.563 25.565-14.12 0-25.564-11.445-25.564-25.565 0-14.116 11.444-25.562 25.564-25.562 14.119-.001 25.563 11.446 25.563 25.562z"/><path opacity=".1" fill="#8CC63F" d="M346.024 839.741c0 14.12-11.444 25.565-25.563 25.565-14.12 0-25.564-11.445-25.564-25.565 0-14.116 11.444-25.562 25.564-25.562 14.119 0 25.563 11.446 25.563 25.562z"/><path opacity=".1" fill="#8CC63F" d="M465.71 498.229c0 14.12-11.444 25.565-25.563 25.565-14.12 0-25.564-11.445-25.564-25.565 0-14.116 11.444-25.562 25.564-25.562 14.119 0 25.563 11.446 25.563 25.562z"/><path opacity=".1" fill="#8CC63F" d="M67.638 589.72c0 14.12-11.444 25.565-25.563 25.565-14.12 0-25.564-11.445-25.564-25.565 0-14.116 11.444-25.562 25.564-25.562 14.118-.001 25.563 11.446 25.563 25.562z"/><path opacity=".1" fill="#8CC63F" d="M298.416 380.636c0 14.12-11.444 25.565-25.563 25.565-14.12 0-25.564-11.445-25.564-25.565 0-14.116 11.444-25.562 25.564-25.562 14.119-.001 25.563 11.446 25.563 25.562z"/><path opacity=".1" fill="#8CC63F" d="M300.099 548.636c0 14.12-11.444 25.565-25.563 25.565-14.12 0-25.564-11.445-25.564-25.565 0-14.116 11.444-25.562 25.564-25.562 14.118-.001 25.563 11.446 25.563 25.562z"/><path opacity=".1" fill="#8CC63F" d="M300.896 512.413c0 15.777-12.787 28.565-28.563 28.565-15.777 0-28.564-12.788-28.564-28.565 0-15.772 12.787-28.562 28.564-28.562 15.775 0 28.563 12.79 28.563 28.562z"/><path opacity=".1" fill="#8CC63F" d="M70.062 704.07c0 15.777-12.787 28.565-28.563 28.565-15.777 0-28.564-12.788-28.564-28.565 0-15.772 12.787-28.562 28.564-28.562 15.775 0 28.563 12.79 28.563 28.562z"/><path opacity=".1" fill="#8CC63F" d="M88.709 726.634c0 12.464-10.102 22.565-22.563 22.565-12.463 0-22.564-10.102-22.564-22.565 0-12.459 10.102-22.562 22.564-22.562 12.461-.001 22.563 10.103 22.563 22.562z"/><path opacity=".1" fill="#8CC63F" d="M293.741 660.388c0 14.12-11.444 25.565-25.563 25.565-14.12 0-25.564-11.445-25.564-25.565 0-14.116 11.444-25.562 25.564-25.562 14.119-.001 25.563 11.445 25.563 25.562z"/><path opacity=".1" fill="#8CC63F" d="M238.955 613.832c0 15.854-12.849 28.703-28.7 28.703-15.854 0-28.702-12.85-28.702-28.703 0-15.848 12.849-28.699 28.702-28.699 15.851 0 28.7 12.851 28.7 28.699z"/><path opacity=".1" fill="#8CC63F" d="M244.067 667.318c0 15.854-12.849 28.703-28.7 28.703-15.854 0-28.702-12.85-28.702-28.703 0-15.848 12.849-28.699 28.702-28.699 15.852 0 28.7 12.852 28.7 28.699z"/><path opacity=".1" fill="#8CC63F" d="M249.195 643.984c0 15.854-12.849 28.703-28.7 28.703-15.854 0-28.702-12.85-28.702-28.703 0-15.848 12.849-28.699 28.702-28.699 15.852 0 28.7 12.852 28.7 28.699z"/><path opacity=".1" fill="#8CC63F" d="M270.102 859.107c0 13.275-10.76 24.036-24.034 24.036-13.275 0-24.035-10.761-24.035-24.036 0-13.271 10.76-24.033 24.035-24.033 13.274 0 24.034 10.762 24.034 24.033z"/><path opacity=".1" fill="#8CC63F" d="M249.256 791.896c0 17.614-14.276 31.893-31.89 31.893s-31.891-14.278-31.891-31.893c0-17.609 14.276-31.889 31.891-31.889 17.613 0 31.89 14.279 31.89 31.889z"/><path opacity=".1" fill="#8CC63F" d="M75.197 825.296c0 17.614-14.276 31.893-31.89 31.893s-31.891-14.278-31.891-31.893c0-17.609 14.276-31.889 31.891-31.889 17.614 0 31.89 14.28 31.89 31.889z"/><path opacity=".1" fill="#8CC63F" d="M252.289 436.309c0 15.854-12.849 28.703-28.7 28.703-15.854 0-28.702-12.85-28.702-28.703 0-15.848 12.849-28.699 28.702-28.699 15.851-.001 28.7 12.851 28.7 28.699z"/><path opacity=".1" fill="#8CC63F" d="M246.067 406.199c0 15.854-12.849 28.703-28.7 28.703-15.854 0-28.702-12.85-28.702-28.703 0-15.848 12.849-28.699 28.702-28.699 15.852 0 28.7 12.852 28.7 28.699z"/><path opacity=".1" fill="#8CC63F" d="M78.687 505.533c0 15.854-12.849 28.703-28.7 28.703-15.854 0-28.702-12.85-28.702-28.703 0-15.848 12.849-28.699 28.702-28.699 15.851 0 28.7 12.852 28.7 28.699z"/><path opacity=".1" fill="#8CC63F" d="M473.544 777.643c0 15.854-12.849 28.703-28.7 28.703-15.854 0-28.702-12.85-28.702-28.703 0-15.848 12.849-28.699 28.702-28.699 15.851-.001 28.7 12.851 28.7 28.699z"/><path opacity=".1" fill="#8CC63F" d="M462.556 393.309c0 11.436-9.268 20.703-20.7 20.703-11.435 0-20.702-9.268-20.702-20.703 0-11.43 9.268-20.699 20.702-20.699 11.432-.001 20.7 9.269 20.7 20.699z"/><path opacity=".15" fill="#8CC63F" d="M249.195 886.275c0 15.854-12.849 28.703-28.7 28.703-15.854 0-28.702-12.85-28.702-28.703 0-15.848 12.849-28.699 28.702-28.699 15.852 0 28.7 12.852 28.7 28.699z"/><path opacity=".1" fill="#8CC63F" d="M244.067 321.567c0 15.854-12.849 28.703-28.7 28.703-15.854 0-28.702-12.85-28.702-28.703 0-15.848 12.849-28.699 28.702-28.699 15.852 0 28.7 12.852 28.7 28.699z"/><path opacity=".1" fill="#8CC63F" d="M238.854 238.289c0 14.56-11.8 26.36-26.356 26.36-14.56 0-26.359-11.801-26.359-26.36 0-14.553 11.8-26.355 26.359-26.355 14.556 0 26.356 11.802 26.356 26.355z"/><path opacity=".1" fill="#8CC63F" d="M237.943 198.864c0 13.035-10.564 23.601-23.598 23.601-13.035 0-23.6-10.565-23.6-23.601 0-13.029 10.564-23.597 23.6-23.597 13.034.001 23.598 10.568 23.598 23.597z"/><path opacity=".1" fill="#8CC63F" d="M227.997 104.749c0 11.674-9.464 21.138-21.136 21.138-11.674 0-21.138-9.464-21.138-21.138 0-11.671 9.464-21.136 21.138-21.136 11.672 0 21.136 9.465 21.136 21.136z"/><circle opacity=".1" fill="#8CC63F" cx="211.983" cy="168.206" r="13.587"/><circle opacity=".1" fill="#8CC63F" cx="220.494" cy="542.941" r="17.449"/><circle opacity=".2" fill="#8CC63F" cx="38.652" cy="132.916" r="24.345"/><circle opacity=".2" fill="#8CC63F" cx="197.652" cy="65.113" r="24.345"/><circle opacity=".2" fill="#8CC63F" cx="410.318" cy="67.458" r="24.345"/><circle opacity=".2" fill="#8CC63F" cx="41.498" cy="256.918" r="24.345"/><circle opacity=".2" fill="#8CC63F" cx="389.148" cy="842.643" r="17.345"/><circle opacity=".2" fill="#8CC63F" cx="443.148" cy="883.143" r="17.345"/><circle opacity=".2" fill="#8CC63F" cx="58.843" cy="877.333" r="17.345"/><circle opacity=".2" fill="#8CC63F" cx="58.843" cy="796.833" r="17.345"/><circle opacity=".2" fill="#8CC63F" cx="90.343" cy="702.833" r="17.345"/><circle opacity=".2" fill="#8CC63F" cx="42.341" cy="613.833" r="17.345"/><circle opacity=".2" fill="#8CC63F" cx="41.498" cy="453.655" r="17.345"/><circle opacity=".2" fill="#8CC63F" cx="50.986" cy="472.667" r="13.334"/><circle opacity=".2" fill="#8CC63F" cx="40.484" cy="566.333" r="13.334"/><circle opacity=".2" fill="#8CC63F" cx="424.486" cy="524.506" r="13.334"/><circle opacity=".2" fill="#8CC63F" cx="443.148" cy="357.412" r="13.334"/><circle opacity=".2" fill="#8CC63F" cx="267.648" cy="443.424" r="13.334"/><circle opacity=".2" fill="#8CC63F" cx="419.827" cy="715.424" r="13.334"/><circle opacity=".2" fill="#8CC63F" cx="410.318" cy="834.424" r="13.334"/><circle opacity=".2" fill="#8CC63F" cx="412.331" cy="775.233" r="8.084"/><circle opacity=".2" fill="#8CC63F" cx="433.161" cy="712.156" r="8.084"/><circle opacity=".2" fill="#8CC63F" cx="440.145" cy="619.656" r="8.084"/><circle opacity=".2" fill="#8CC63F" cx="281.652" cy="587.206" r="8.084"/><circle opacity=".2" fill="#8CC63F" cx="297.57" cy="591.543" r="11.334"/><circle opacity=".2" fill="#8CC63F" cx="419.827" cy="653.986" r="13.334"/><circle opacity=".2" fill="#8CC63F" cx="109.327" cy="698.822" r="13.334"/><circle opacity=".2" fill="#8CC63F" cx="77.009" cy="809.277" r="13.334"/><circle opacity=".2" fill="#8CC63F" cx="82.659" cy="889.777" r="13.334"/><circle opacity=".2" fill="#8CC63F" cx="116.159" cy="886.277" r="7.834"/><circle opacity=".2" fill="#8CC63F" cx="126.659" cy="885.168" r="7.834"/><circle opacity=".2" fill="#8CC63F" cx="86.332" cy="598.468" r="13.334"/><circle opacity=".2" fill="#8CC63F" cx="32.992" cy="287.452" r="17.345"/><circle opacity=".2" fill="#8CC63F" cx="40.993" cy="99.464" r="17.345"/><circle opacity=".2" fill="#8CC63F" cx="377.807" cy="60.458" r="17.345"/><path opacity=".1" fill="#8CC63F" d="M248.877 812.066c0 7.309-5.923 13.231-13.229 13.231-7.308 0-13.231-5.923-13.231-13.231 0-7.305 5.924-13.229 13.231-13.229 7.306 0 13.229 5.925 13.229 13.229z"/><path fill="#6C3054" d="M148.074 290.76c0 9.097-7.375 16.471-16.473 16.471-9.099 0-16.472-7.374-16.472-16.471 0-9.1 7.373-16.473 16.472-16.473 9.098 0 16.473 7.373 16.473 16.473z"/><text transform="translate(126.984 296.795)" fill="#fff" font-family="'CaeciliaLTStd-Heavy'" font-size="18">7</text><text transform="translate(34.006 45.656)" fill="#6C3054" font-family="'ProximaNova-Bold'" font-size="8" letter-spacing="2">NORTH</text><polygon fill-rule="evenodd" clip-rule="evenodd" fill="#6C3054" points="59.899,31.22 50.986,0 42.074,31.22 50.986,28.876"/><text transform="translate(346.275 547.698)" fill="#fff" font-family="'CaeciliaLTStd-Heavy'" font-size="18">13</text><text transform="translate(126.984 745.866)" fill="#fff" font-family="'CaeciliaLTStd-Heavy'" font-size="18">2</text></svg>