<?xml version="1.0" encoding="utf-8"?>
<!-- Generator: Adobe Illustrator 16.0.0, SVG Export Plug-In . SVG Version: 6.00 Build 0)  -->
<!DOCTYPE svg PUBLIC "-//W3C//DTD SVG 1.1//EN" "http://www.w3.org/Graphics/SVG/1.1/DTD/svg11.dtd">
<svg version="1.1" id="Layer_1" xmlns="http://www.w3.org/2000/svg" xmlns:xlink="http://www.w3.org/1999/xlink" x="0px" y="0px"
	 width="484.967px" height="1009.149px" viewBox="0 0 484.967 1009.149" enable-background="new 0 0 484.967 1009.149"
	 xml:space="preserve">
<polygon opacity="0.15" fill="#8CC63F" points="311.443,849.812 451.057,850.881 452.127,907.582 316.793,907.582 315.99,891.535 
	320.805,876.824 317.328,866.661 311.711,854.626 "/>
<path opacity="0.15" fill="#8CC63F" d="M32.218,874.418v32.362c0,0,255.423,5.617,255.423,1.07s-0.465-15.828-0.465-15.828
	l-3.814-6.854l-8.024-4.866L274,873.883v-7.756l6.687-4.904l3.23-5.26v-10.698l-44.687,29.688L32.218,874.418z"/>
<polygon opacity="0.15" fill="#8CC63F" points="232.077,59.78 232.077,92.568 229.016,99.304 219.438,107.295 213.401,121.347 
	216.769,138.585 225.035,145.228 231.158,152.881 231.465,173.394 231.465,247.178 32.463,247.79 33.075,64.708 "/>
<path fill="#6C3054" d="M245.668,60.813l-0.135-4.998l-5.997,0.161l0.135,4.998L245.668,60.813z M454.807,50.954
	c-0.483-0.471-1.134-0.731-1.812-0.708l-192.898,5.18v-0.433h-5v0.566l-3.565,0.096l0.135,4.998l3.431-0.093v29.314
	c0,5.16,2.343,9.938,6.384,13.071l0.218,0.171c6.896,4.919,11.012,12.9,11.012,21.35c0,8.451-4.116,16.434-11.012,21.353
	l-0.174,0.136c-4.085,3.169-6.428,7.946-6.428,13.105v601.778l0.019,0.339c0.196,7.413,1.851,14.397,4.919,20.758
	c2.446,5.07,4.927,8.737,7.584,11.211c2.363,2.198,5.258,4.387,8.364,6.735c3.518,2.655,7.154,5.402,10.811,8.731
	c2.46,2.24,4.612,4.431,6.579,6.697c8.451,9.729,13.448,19.784,14.851,29.883c0.104,0.762,0.186,1.563,0.247,2.453l0.027,0.256
	c0.154,2.853,0.739,5.955,1.739,9.22c0.709,2.319,1.857,4.411,3.09,6.656c1.329,2.421,2.703,4.924,3.419,7.71
	c1.229,4.776,0.152,9.514-1.063,13.518c-1.425,4.697-1.765,9.664-1.9,13.468c-0.078,2.204-0.088,4.434-0.09,6.63h-0.004v5h138.922
	c1.38,0,2.499-1.118,2.5-2.499l0.453-854.858C455.562,52.071,455.29,51.425,454.807,50.954z M450.11,905.104H318.691
	c0.002-2.15,0.011-4.33,0.086-6.451c0.126-3.5,0.431-8.049,1.689-12.194c1.416-4.667,2.657-10.243,1.12-16.215
	c-0.872-3.396-2.4-6.179-3.895-8.9c-1.088-1.983-2.116-3.856-2.675-5.683c-0.313-1.025-0.563-2.017-0.784-2.991h135.905
	L450.11,905.104z M450.141,847.669H313.491c-0.006-0.155-0.02-0.31-0.04-0.462c-0.068-0.967-0.159-1.85-0.275-2.698
	c-1.539-11.077-6.932-22.004-16.028-32.477c-2.096-2.415-4.382-4.743-6.987-7.116c-3.827-3.483-7.558-6.301-11.204-9.054
	c-2.96-2.238-5.756-4.352-7.932-6.376c-2.194-2.042-4.315-5.223-6.486-9.723c-2.259-4.684-3.651-9.759-4.185-15.114h189.831
	L450.141,847.669z M450.188,759.649H260.097v-83.02h190.135L450.188,759.649z M450.234,671.63H260.097v-83.021h190.182
	L450.234,671.63z M450.281,583.609H260.097v-83.02h190.229L450.281,583.609z M450.328,495.59H260.097v-83.02h190.275L450.328,495.59
	z M450.375,407.57H260.097v-83.02h190.322L450.375,407.57z M450.421,319.551H260.097v-83.02h190.368L450.421,319.551z
	 M450.468,231.531H260.097v-72.471c0-3.603,1.638-6.939,4.499-9.16l0.068-0.055c0.592-0.425,1.161-0.873,1.719-1.335h184.129
	L450.468,231.531z M450.515,143.511H271.209c4.156-5.401,6.501-12.088,6.501-19.044c0-10.037-4.876-19.518-13.047-25.376
	l-0.074-0.061c-2.854-2.215-4.492-5.552-4.492-9.155V60.428l190.465-5.114L450.515,143.511z M281.62,881.566
	c-3.84-1.465-6.42-5.192-6.42-9.277c0-3.453,1.763-6.601,4.715-8.419c5.74-3.534,8.641-9.451,7.757-15.828
	c-0.843-6.062-4.2-12.509-9.979-19.162c-1.438-1.657-3.037-3.281-4.886-4.963c-2.969-2.703-6.069-5.044-9.351-7.521
	c-3.362-2.538-6.839-5.163-9.992-8.1c-4.569-4.253-8.535-9.934-12.122-17.364c-4.254-8.82-6.591-18.433-6.946-28.57l-0.034-0.338
	c-0.009-0.048-0.014-0.098-0.014-0.148V159.061c0-5.157-2.343-9.934-6.449-13.121l-0.154-0.12
	c-6.894-4.92-11.01-12.902-11.01-21.353c0-8.448,4.116-16.43,11.01-21.35l0.176-0.137c4.085-3.171,6.428-7.947,6.428-13.105V61.117
	l0.066-0.002l-0.066-2.463v-2.969h-5v0.566L32.568,61.534c-1.353,0.036-2.431,1.142-2.433,2.495l-0.471,293.92
	c-0.001,0.664,0.262,1.301,0.73,1.771c0.47,0.47,1.105,0.733,1.77,0.733h30.419v28.39H32.636c-1.381,0-2.5,1.119-2.5,2.5v516.261
	c0,1.381,1.119,2.5,2.5,2.5h257.235v-16.621C289.871,888.214,286.552,883.425,281.62,881.566z M35.132,66.467l194.216-5.216v28.624
	c0,3.602-1.638,6.939-4.552,9.202l-0.017,0.014c-8.17,5.86-13.045,15.341-13.045,25.376c0,10.04,4.878,19.524,13.052,25.385
	l0.067,0.054c2.856,2.217,4.494,5.554,4.494,9.155v85.382H34.847L35.132,66.467z M34.839,249.442h194.509v84.706H34.703
	L34.839,249.442z M35.136,393.843h29.948c1.381,0,2.5-1.119,2.5-2.5v-33.39c0-1.381-1.119-2.5-2.5-2.5H34.669l0.026-16.305h194.652
	v84.704H35.136V393.843z M35.136,428.853h194.212v84.705H35.136V428.853z M35.136,518.558h194.212v84.705H35.136V518.558z
	 M35.136,608.263h194.212v84.705H35.136V608.263z M35.136,697.968h194.212v63.907c0,0.269,0.019,0.54,0.057,0.81
	c0.167,4.544,0.73,8.983,1.641,13.312l-10.006,6.678H35.136V697.968z M35.136,787.674h187.419l9.762-6.516
	c1.17,4.105,2.666,8.099,4.522,11.946c3.862,8.001,8.186,14.168,13.219,18.852c3.341,3.111,6.922,5.814,10.385,8.43
	c3.188,2.406,6.199,4.68,8.999,7.229c1.702,1.55,3.166,3.035,4.476,4.544c3.307,3.807,5.699,7.473,7.182,10.96l-42.616,29.259
	H35.136V787.674z M284.871,905.104H35.136v-27.727h204.897l42.574-29.23c0.032,0.193,0.085,0.391,0.111,0.582
	c0.604,4.353-1.425,8.421-5.425,10.884c-4.442,2.735-7.094,7.475-7.094,12.677c0,6.145,3.873,11.751,9.647,13.953
	c3.005,1.132,5.023,4.041,5.023,7.24V905.104z M260.097,12.447h-5v3h5V12.447z M260.097,32.396h-5v5.649h5V32.396z M260.097,21.097
	h-5v5.649h5V21.097z M260.097,43.694h-5v5.649h5V43.694z M234.348,44.188h-5v5.748h5V44.188z M234.348,21.195h-5v5.748h5V21.195z
	 M234.348,32.691h-5v5.748h5V32.691z M234.348,12.447h-5v3h5V12.447z M244.856,137.209c6.647,0,12.055-5.407,12.055-12.053
	c0-6.647-5.407-12.056-12.055-12.056s-12.055,5.408-12.055,12.056C232.802,131.802,238.209,137.209,244.856,137.209z
	 M244.856,118.101c3.89,0,7.055,3.165,7.055,7.056c0,3.889-3.165,7.053-7.055,7.053s-7.055-3.164-7.055-7.053
	C237.802,121.266,240.967,118.101,244.856,118.101z"/>
<circle fill="#6C3054" cx="131.602" cy="830.024" r="16.472"/>
<circle opacity="0.7" fill="#8CC63F" cx="131.602" cy="740.146" r="16.472"/>
<path opacity="0.7" fill="#8CC63F" d="M148.074,650.271c0,9.096-7.375,16.471-16.473,16.471c-9.099,0-16.472-7.375-16.472-16.471
	c0-9.101,7.373-16.474,16.472-16.474C140.699,633.798,148.074,641.171,148.074,650.271z"/>
<circle opacity="0.7" fill="#8CC63F" cx="131.602" cy="470.515" r="16.472"/>
<circle fill="#6C3054" cx="131.602" cy="380.636" r="16.472"/>
<circle fill="#6C3054" cx="355.329" cy="452.784" r="16.474"/>
<g>
	<text transform="matrix(1 0 0 1 346.0957 459.5039)" fill="#FFFFFF" font-family="'CaeciliaLTStd-Heavy'" font-size="18">12</text>
</g>
<circle fill="#6C3054" cx="355.329" cy="364.589" r="16.474"/>
<g>
	<text transform="matrix(1 0 0 1 346.0957 371.3096)" fill="#FFFFFF" font-family="'CaeciliaLTStd-Heavy'" font-size="18">11</text>
</g>
<circle opacity="0.7" fill="#8CC63F" cx="355.329" cy="276.396" r="16.474"/>
<g>
	<text transform="matrix(1 0 0 1 346.0957 283.1162)" fill="#FFFFFF" font-family="'CaeciliaLTStd-Heavy'" font-size="18">10</text>
</g>
<circle opacity="0.7" fill="#8CC63F" cx="355.329" cy="188.201" r="16.474"/>
<g>
	<text transform="matrix(1 0 0 1 351.7129 194.9209)" fill="#FFFFFF" font-family="'CaeciliaLTStd-Heavy'" font-size="18">9</text>
</g>
<path fill="#6C3054" d="M371.803,100.01c0,9.096-7.377,16.471-16.474,16.471c-9.099,0-16.474-7.375-16.474-16.471
	c0-9.101,7.375-16.474,16.474-16.474C364.426,83.536,371.803,90.909,371.803,100.01z"/>
<g>
	<text transform="matrix(1 0 0 1 350.7119 106.7275)" fill="#FFFFFF" font-family="'CaeciliaLTStd-Heavy'" font-size="18">8</text>
</g>
<circle opacity="0.6" fill="#ED1C24" cx="355.329" cy="540.978" r="16.474"/>
<g>
	<circle fill="#6C3054" cx="355.329" cy="629.172" r="16.474"/>
	<g>
		<text transform="matrix(1 0 0 1 346.0957 635.8926)" fill="#FFFFFF" font-family="'CaeciliaLTStd-Heavy'" font-size="18">14</text>
	</g>
</g>
<g>
	<path opacity="0.7" fill="#8CC63F" d="M371.803,717.367c0,9.096-7.377,16.471-16.474,16.471c-9.099,0-16.474-7.375-16.474-16.471
		c0-9.101,7.375-16.474,16.474-16.474C364.426,700.894,371.803,708.267,371.803,717.367z"/>
	<g>
		<text transform="matrix(1 0 0 1 346.0957 724.0859)" fill="#FFFFFF" font-family="'CaeciliaLTStd-Heavy'" font-size="18">15</text>
	</g>
</g>
<circle opacity="0.6" fill="#ED1C24" cx="355.329" cy="805.56" r="16.474"/>
<g>
	<text transform="matrix(1 0 0 1 346.0957 812.2803)" fill="#FFFFFF" font-family="'CaeciliaLTStd-Heavy'" font-size="18">16</text>
</g>
<circle opacity="0.7" fill="#8CC63F" cx="131.604" cy="560.393" r="16.473"/>
<g>
	<text transform="matrix(1 0 0 1 126.9844 835.7441)" fill="#FFFFFF" font-family="'CaeciliaLTStd-Heavy'" font-size="18">1</text>
</g>
<g>
	<text transform="matrix(1 0 0 1 126.9844 656.3047)" fill="#FFFFFF" font-family="'CaeciliaLTStd-Heavy'" font-size="18">3</text>
</g>
<g>
	<text transform="matrix(1 0 0 1 126.9844 476.5498)" fill="#FFFFFF" font-family="'CaeciliaLTStd-Heavy'" font-size="18">5</text>
</g>
<g>
	<text transform="matrix(1 0 0 1 126.9844 386.6729)" fill="#FFFFFF" font-family="'CaeciliaLTStd-Heavy'" font-size="18">6</text>
</g>
<g>
	<text transform="matrix(1 0 0 1 126.9844 566.4277)" fill="#FFFFFF" font-family="'CaeciliaLTStd-Heavy'" font-size="18">4</text>
</g>
<text transform="matrix(1 0 0 1 49.0342 942.4551)" fill="#FFFFFF" font-family="'ProximaNova-Bold'" font-size="16" letter-spacing="4">RIGGS ROAD</text>
<circle fill="#6C3054" cx="425.551" cy="940.114" r="10"/>
<circle opacity="0.7" fill="#8CC63F" cx="425.551" cy="940.114" r="10"/>
<circle fill="#6C3054" cx="425.551" cy="970.132" r="10"/>
<circle opacity="0.6" fill="#ED1C24" cx="425.551" cy="999.148" r="10"/>
<text transform="matrix(1 0 0 1 344.8535 943.9463)"><tspan x="0" y="0" fill="#B3B3B3" font-family="'ProximaNova-Bold'" font-size="10" letter-spacing="1">AVAILABLE</tspan><tspan x="3.49" y="30" fill="#B3B3B3" font-family="'ProximaNova-Bold'" font-size="10" letter-spacing="1">RESERVED</tspan><tspan x="31.879" y="60" fill="#B3B3B3" font-family="'ProximaNova-Bold'" font-size="10" letter-spacing="1">SOLD</tspan></text>
<text transform="matrix(1 0 0 1 114.0024 161.4531)"><tspan x="0" y="0" fill="#FFFFFF" font-family="'ProximaNova-Bold'" font-size="16" letter-spacing="4">THE</tspan><tspan x="-32.904" y="19.2" fill="#FFFFFF" font-family="'ProximaNova-Bold'" font-size="16" letter-spacing="4">HOLLOWS</tspan><tspan x="-7.936" y="38.4" fill="#FFFFFF" font-family="'ProximaNova-Bold'" font-size="16" letter-spacing="4">PARK</tspan></text>
<text transform="matrix(0 1 -1 0 4 433.085)" fill="#FFFFFF" font-family="'ProximaNova-Bold'" font-size="16" letter-spacing="4">182ND STREET</text>
<text transform="matrix(0 1 -1 0 471.5742 433.877)" fill="#FFFFFF" font-family="'ProximaNova-Bold'" font-size="16" letter-spacing="4">183RD STREET</text>
<path fill="#FFFFFF" d="M147.548,103.885c-3.626-3.627-8.448-5.624-13.577-5.624s-9.95,1.997-13.577,5.624
	s-5.623,8.449-5.623,13.576c0,5.129,1.996,9.953,5.623,13.578c3.627,3.627,8.448,5.624,13.577,5.624s9.951-1.997,13.577-5.624
	c3.627-3.625,5.624-8.449,5.624-13.578C153.172,112.334,151.175,107.512,147.548,103.885z M133.971,135.561
	c-9.979,0-18.098-8.118-18.098-18.1c0-9.979,8.118-18.098,18.098-18.098s18.098,8.119,18.098,18.098
	C152.068,127.442,143.95,135.561,133.971,135.561z M148.049,109.697c-0.045-0.148-0.116-0.287-0.208-0.416
	c-0.073-0.096-0.156-0.185-0.244-0.26c-0.394-0.344-0.92-0.52-1.564-0.52c-2.305,0-5.506,2.194-7.784,5.336
	c-0.373,0.514-0.705,1.029-0.989,1.533c-0.005,0.012-0.016,0.02-0.027,0.021l-3.745,0.806c-0.017,0.003-0.033-0.002-0.043-0.016
	c-0.011-0.013-0.014-0.029-0.007-0.045c1.272-2.98,3.196-5.49,5.563-7.258c0.002-0.002,0.003-0.004,0.007-0.007
	c0.06-0.047,0.095-0.093,0.093-0.135c-0.002-0.046-0.054-0.079-0.054-0.079c-0.09-0.069-0.19-0.101-0.301-0.101
	c-0.122,0-0.233,0.038-0.305,0.071c-0.504,0.269-1.009,0.585-1.49,0.935c-0.004,0.003-0.005,0.005-0.009,0.005
	c-0.244,0.098-0.317,0.127-0.342,0.135l0,0c-0.65,0.252-1.379,0.378-2.164,0.378c-0.586,0-1.188-0.07-1.791-0.21l-0.103-0.033
	c1.238-1.26,4.086-3.806,7.534-4.618c0,0,0.335-0.058,0.376-0.306c0,0,0.052-0.317-0.506-0.225
	c-3.586,0.597-6.882,3.351-8.431,4.829c-0.174-0.064-0.305-0.117-0.305-0.117c-0.193-0.081-0.385-0.167-0.565-0.26
	c-0.085-0.047-2.063-1.145-4.201-1.145c-0.09,0-0.178,0.002-0.264,0.006c-0.047,0.001-0.094,0.004-0.139,0.008l-0.041,0.002
	c-0.058,0.005-0.108,0.009-0.161,0.016l-0.032,0.004c-0.003,0-0.006,0.001-0.01,0.001c-0.987,0.121-1.875,0.569-2.497,1.263
	c-0.549,0.616-0.829,1.367-0.787,2.114c0.079,1.447,1.359,2.539,3.044,2.593c0.023,0,0.046,0,0.069,0h0.016
	c0.002,0,0.002,0.002,0.006,0.002h0.012h0.023c0.249,0,0.503-0.024,0.759-0.071c1.532-0.228,3.038-0.973,4.243-2.1
	c0.087-0.083,0.178-0.173,0.285-0.281c0.003-0.005,0.005-0.007,0.007-0.007l0.041-0.045c0.054-0.055,0.108-0.113,0.159-0.17
	c0.188-0.202,0.371-0.397,0.545-0.584c0.011-0.012,0.026-0.015,0.041-0.012c0.536,0.117,1.092,0.179,1.654,0.179
	c0.76,0,1.507-0.113,2.16-0.325c0.021-0.006,0.042,0.002,0.054,0.019c0.01,0.018,0.007,0.039-0.008,0.054
	c-1.274,1.194-2.351,2.628-3.198,4.263c-0.002,0-0.002,0.002-0.004,0.004c-0.251,0.528-0.511,1.082-0.773,1.646
	c-0.005,0.012-0.016,0.021-0.028,0.025l-2.669,0.571c-0.021,0.004-0.041-0.005-0.05-0.026c-0.45-1.113-1.559-1.804-2.896-1.804
	h-0.06c-0.067,0-0.137,0.004-0.203,0.007c-0.005,0.002-0.01,0-0.015,0c-1.571,0.142-3.133,0.839-4.396,1.969
	c-1.542,1.373-2.401,3.158-2.359,4.899c0.031,1.323,0.595,2.493,1.589,3.298c0.868,0.703,1.998,1.076,3.268,1.076
	c1.779,0,3.608-0.727,5.021-1.995c0.194-0.174,0.388-0.365,0.57-0.567c0.002-0.005,0.007-0.006,0.009-0.008
	c1.706-1.821,2.604-4.238,2.612-4.265c0.473-1.288,1.028-2.706,1.035-2.722c0.002-0.002,0.004-0.007,0.006-0.01
	c0.008-0.021,0.017-0.042,0.023-0.062l0.021-0.052c0.005-0.016,0.018-0.024,0.031-0.028l3.647-0.782l0.194-0.01
	c-0.436,1.237-1.107,4.083,1.109,5.821c-0.226,0.481-0.552,1.196-1.015,2.238c-1.125,2.526-3.821,6.038-9.089,6.059l0,0
	c0,0-0.519,0-0.725,0.252c0,0-0.262,0.365,0.514,0.399c2.084,0.068,7.668-0.419,10.59-7.142c0,0,0.208-0.52,0.611-1.254
	c0.088,0.041,0.176,0.084,0.27,0.125c0,0,2.855,1.302,4.977-1.072c0,0,1.619-1.834,0.218-3.349c0,0-2.714-2.655-5.829,2.691
	c-1.747-1.817,0.037-4.745,0.367-5.251c0.535-0.09,1.068-0.202,1.595-0.335c3.46-0.87,6.296-2.5,7.222-4.148
	C148.105,110.61,148.182,110.131,148.049,109.697z M130.515,110.537c-0.028,0.03-0.057,0.057-0.087,0.087
	c-0.109,0.101-0.227,0.197-0.342,0.291c-0.028,0.028-0.045,0.046-0.045,0.046h-0.007c-1.204,0.979-2.671,1.564-4.103,1.615h-0.001
	c-0.006,0-0.01-0.002-0.012-0.002h-0.03h-0.015c-1.19-0.038-2.093-0.718-2.146-1.62c-0.027-0.464,0.165-0.938,0.542-1.336
	c0.544-0.578,1.407-0.923,2.308-0.923c0.06,0,0.12,0.002,0.181,0.004c0.089,0.005,0.179,0.013,0.272,0.025
	c0.436,0.077,1.172,0.314,2.303,0.952c0.357,0.247,0.923,0.592,1.25,0.787L130.515,110.537z M128.535,117.882
	c0.012-0.004,0.023-0.002,0.033,0.004c0.01,0.005,0.018,0.017,0.021,0.027c0.098,0.413,0.055,0.876-0.117,1.306
	c-0.341,0.843-1.167,1.473-2.009,1.53c-0.065,0.006-0.125,0.007-0.183,0.007c-0.31,0-0.549-0.064-0.757-0.21
	c-0.065-0.049-0.391-0.316-0.361-0.712c0.025-0.357,0.336-0.703,0.916-1.024C126.091,118.803,127.247,118.21,128.535,117.882z
	 M131.293,117.354c-0.359,0.785-0.584,1.299-0.587,1.305c-1.626,3.55-2.627,4.467-2.67,4.502c0,0.002,0,0.002-0.002,0.004
	l-0.009,0.011c-0.03,0.03-0.059,0.062-0.086,0.095c-1.167,1.232-2.77,1.967-4.287,1.967c-0.892,0-1.691-0.265-2.312-0.764
	c-0.763-0.614-1.18-1.521-1.174-2.552c0.01-1.485,0.863-3.038,2.282-4.153c1.076-0.844,2.336-1.311,3.543-1.311
	c0.645,0,1.257,0.137,1.773,0.395c0.001,0.002,0.003,0.002,0.003,0.002c0.2,0.099,0.372,0.235,0.509,0.407
	c0.011,0.012,0.015,0.026,0.009,0.041s-0.018,0.024-0.032,0.028c-0.694,0.172-1.995,0.545-2.909,1.078l-0.044,0.027
	c0,0-0.002,0.002-0.004,0.004c-1.004,0.6-1.497,1.554-1.174,2.267c0.219,0.483,0.785,0.772,1.513,0.772
	c0.44,0,0.907-0.105,1.351-0.307c0.153-0.069,0.303-0.148,0.446-0.239c0.003-0.004,0.006-0.006,0.011-0.006
	c0.924-0.579,1.536-1.499,1.64-2.47c0.022-0.22,0.019-0.44-0.01-0.658c-0.003-0.022,0.012-0.043,0.035-0.047l2.136-0.461
	c0.015-0.002,0.032,0.004,0.043,0.017C131.297,117.321,131.299,117.339,131.293,117.354z M141.206,119.461
	c0.013-0.012,0.022-0.023,0.034-0.033c0.021-0.021,0.044-0.041,0.064-0.061l0.002-0.002c0.709-0.65,1.625-0.805,2.077-0.341
	c0.468,0.478,0.265,1.432-0.454,2.134c-0.015,0.014-0.031,0.029-0.048,0.045l0,0c-1.191,1.231-3.03,0.469-3.03,0.469
	c-0.104-0.046-0.205-0.095-0.3-0.145C139.988,120.852,140.541,120.112,141.206,119.461z M140.092,114.755
	c-0.168,0.043-0.349,0.084-0.552,0.131c-0.004,0-0.006,0-0.009,0c-0.017,0-0.029-0.006-0.036-0.019
	c-0.012-0.016-0.012-0.034,0-0.051c0.241-0.347,0.506-0.702,0.787-1.052c1.808-2.259,3.929-3.908,5.532-4.306
	c0.045-0.008,0.16-0.027,0.302-0.027c0.542,0,0.844,0.247,0.849,0.691C146.971,111.803,144.081,113.75,140.092,114.755z"/>
<circle opacity="0.2" fill="#8CC63F" cx="427.498" cy="156.863" r="17.345"/>
<circle opacity="0.2" fill="#8CC63F" cx="291.11" cy="178.37" r="17.345"/>
<circle opacity="0.2" fill="#8CC63F" cx="443.754" cy="242.578" r="17.345"/>
<circle opacity="0.2" fill="#8CC63F" cx="442.498" cy="344.078" r="17.345"/>
<circle opacity="0.2" fill="#8CC63F" cx="265.498" cy="426.078" r="17.345"/>
<circle opacity="0.1" fill="#D9E021" cx="426.843" cy="427.136" r="7.678"/>
<circle opacity="0.1" fill="#D9E021" cx="434.176" cy="423.803" r="7.678"/>
<circle opacity="0.1" fill="#D9E021" cx="437.82" cy="453.655" r="7.678"/>
<circle opacity="0.1" fill="#D9E021" cx="76.82" cy="344.988" r="7.678"/>
<circle opacity="0.1" fill="#D9E021" cx="60.343" cy="350.27" r="7.678"/>
<circle opacity="0.1" fill="#D9E021" cx="85.153" cy="352.667" r="7.678"/>
<circle opacity="0.1" fill="#D9E021" cx="50.986" cy="406.333" r="7.678"/>
<circle opacity="0.1" fill="#D9E021" cx="70.986" cy="420" r="7.678"/>
<path opacity="0.1" fill="#D9E021" d="M77.175,531.977c0,6.77-5.486,12.256-12.254,12.256c-6.77,0-12.256-5.486-12.256-12.256
	c0-6.766,5.486-12.254,12.256-12.254C71.688,519.723,77.175,525.211,77.175,531.977z"/>
<path opacity="0.1" fill="#D9E021" d="M379.839,670.643c0,6.77-5.486,12.256-12.254,12.256c-6.77,0-12.256-5.486-12.256-12.256
	c0-6.766,5.486-12.254,12.256-12.254C374.353,658.389,379.839,663.877,379.839,670.643z"/>
<path opacity="0.1" fill="#D9E021" d="M296.172,762.977c0,6.77-5.486,12.256-12.254,12.256c-6.77,0-12.256-5.486-12.256-12.256
	c0-6.766,5.486-12.254,12.256-12.254C290.686,750.723,296.172,756.211,296.172,762.977z"/>
<circle opacity="0.1" fill="#D9E021" cx="339.833" cy="869.811" r="13.088"/>
<circle opacity="0.1" fill="#D9E021" cx="356.333" cy="869.811" r="8.588"/>
<path opacity="0.1" fill="#D9E021" d="M198.505,778.757c0,6.77-5.486,12.256-12.254,12.256c-6.77,0-12.256-5.486-12.256-12.256
	c0-6.766,5.486-12.254,12.256-12.254C193.019,766.503,198.505,771.991,198.505,778.757z"/>
<path opacity="0.1" fill="#D9E021" d="M88.176,529.31c0,4.929-3.994,8.923-8.921,8.923c-4.929,0-8.923-3.994-8.923-8.923
	c0-4.925,3.994-8.921,8.923-8.921C84.182,520.389,88.176,524.385,88.176,529.31z"/>
<path opacity="0.1" fill="#D9E021" d="M360.176,671.312c0,4.929-3.994,8.923-8.921,8.923c-4.929,0-8.923-3.994-8.923-8.923
	c0-4.925,3.994-8.921,8.923-8.921C356.182,662.391,360.176,666.387,360.176,671.312z"/>
<path opacity="0.1" fill="#D9E021" d="M287.176,777.643c0,4.929-3.994,8.923-8.921,8.923c-4.929,0-8.923-3.994-8.923-8.923
	c0-4.925,3.994-8.921,8.923-8.921C283.182,768.722,287.176,772.718,287.176,777.643z"/>
<path opacity="0.1" fill="#D9E021" d="M219.176,702.089c0,4.929-3.994,8.923-8.921,8.923c-4.929,0-8.923-3.994-8.923-8.923
	c0-4.925,3.994-8.921,8.923-8.921C215.182,693.168,219.176,697.164,219.176,702.089z"/>
<path opacity="0.1" fill="#D9E021" d="M206.509,704.071c0,4.929-3.994,8.923-8.921,8.923c-4.929,0-8.923-3.994-8.923-8.923
	c0-4.925,3.994-8.921,8.923-8.921C202.515,695.15,206.509,699.146,206.509,704.071z"/>
<circle opacity="0.1" fill="#D9E021" cx="422.986" cy="338.334" r="7.678"/>
<circle opacity="0.1" fill="#D9E021" cx="445.498" cy="266.334" r="11.178"/>
<circle opacity="0.1" fill="#D9E021" cx="419.41" cy="239.501" r="11.178"/>
<circle opacity="0.1" fill="#D9E021" cx="398.663" cy="240.501" r="11.178"/>
<circle opacity="0.1" fill="#D9E021" cx="381.744" cy="235.001" r="11.178"/>
<circle opacity="0.1" fill="#D9E021" cx="366.204" cy="238.14" r="11.178"/>
<circle opacity="0.1" fill="#D9E021" cx="277.153" cy="69.958" r="10.178"/>
<circle opacity="0.1" fill="#D9E021" cx="303.928" cy="63.69" r="12.178"/>
<circle opacity="0.1" fill="#D9E021" cx="278.606" cy="326.807" r="12.505"/>
<path opacity="0.1" fill="#D9E021" d="M70.851,75.355c0,6.033-4.891,10.924-10.922,10.924c-6.034,0-10.924-4.891-10.924-10.924
	c0-6.03,4.89-10.922,10.924-10.922C65.96,64.434,70.851,69.325,70.851,75.355z"/>
<circle opacity="0.1" fill="#D9E021" cx="74.074" cy="74.44" r="7.678"/>
<circle opacity="0.2" fill="#8CC63F" cx="441.999" cy="533.076" r="17.345"/>
<circle opacity="0.2" fill="#8CC63F" cx="443.003" cy="651.143" r="17.345"/>
<circle opacity="0.2" fill="#8CC63F" cx="443.501" cy="730.643" r="17.345"/>
<circle opacity="0.1" fill="#8CC63F" cx="289.127" cy="682.028" r="23.641"/>
<path opacity="0.1" fill="#8CC63F" d="M229.524,518.938c0,14.949-12.116,27.065-27.063,27.065
	c-14.948,0-27.064-12.116-27.064-27.065c0-14.944,12.116-27.062,27.064-27.062C217.408,491.876,229.524,503.994,229.524,518.938z"/>
<path opacity="0.1" fill="#8CC63F" d="M76.051,178.368c0,18.539-15.026,33.565-33.563,33.565c-18.538,0-33.564-15.026-33.564-33.565
	c0-18.534,15.026-33.562,33.564-33.562C61.024,144.806,76.051,159.834,76.051,178.368z"/>
<path opacity="0.1" fill="#8CC63F" d="M299.133,159.702c0,14.12-11.444,25.565-25.563,25.565c-14.12,0-25.564-11.445-25.564-25.565
	c0-14.116,11.444-25.562,25.564-25.562C287.688,134.14,299.133,145.586,299.133,159.702z"/>
<path opacity="0.1" fill="#8CC63F" d="M291.75,263.702c0,14.12-11.444,25.565-25.563,25.565c-14.12,0-25.564-11.445-25.564-25.565
	c0-14.116,11.444-25.562,25.564-25.562C280.306,238.14,291.75,249.586,291.75,263.702z"/>
<path opacity="0.1" fill="#8CC63F" d="M294.896,222.464c0,14.12-11.444,25.565-25.563,25.565c-14.12,0-25.564-11.445-25.564-25.565
	c0-14.116,11.444-25.562,25.564-25.562C283.452,196.901,294.896,208.348,294.896,222.464z"/>
<path opacity="0.1" fill="#8CC63F" d="M346.024,839.741c0,14.12-11.444,25.565-25.563,25.565c-14.12,0-25.564-11.445-25.564-25.565
	c0-14.116,11.444-25.562,25.564-25.562C334.58,814.179,346.024,825.625,346.024,839.741z"/>
<path opacity="0.1" fill="#8CC63F" d="M465.71,498.229c0,14.12-11.444,25.565-25.563,25.565c-14.12,0-25.564-11.445-25.564-25.565
	c0-14.116,11.444-25.562,25.564-25.562C454.266,472.667,465.71,484.113,465.71,498.229z"/>
<path opacity="0.1" fill="#8CC63F" d="M67.638,589.72c0,14.12-11.444,25.565-25.563,25.565c-14.12,0-25.564-11.445-25.564-25.565
	c0-14.116,11.444-25.562,25.564-25.562C56.193,564.157,67.638,575.604,67.638,589.72z"/>
<path opacity="0.1" fill="#8CC63F" d="M298.416,380.636c0,14.12-11.444,25.565-25.563,25.565c-14.12,0-25.564-11.445-25.564-25.565
	c0-14.116,11.444-25.562,25.564-25.562C286.972,355.073,298.416,366.52,298.416,380.636z"/>
<path opacity="0.1" fill="#8CC63F" d="M300.099,548.636c0,14.12-11.444,25.565-25.563,25.565c-14.12,0-25.564-11.445-25.564-25.565
	c0-14.116,11.444-25.562,25.564-25.562C288.654,523.073,300.099,534.52,300.099,548.636z"/>
<path opacity="0.1" fill="#8CC63F" d="M300.896,512.413c0,15.777-12.787,28.565-28.563,28.565
	c-15.777,0-28.564-12.788-28.564-28.565c0-15.772,12.787-28.562,28.564-28.562C288.108,483.851,300.896,496.641,300.896,512.413z"/>
<path opacity="0.1" fill="#8CC63F" d="M70.062,704.07c0,15.777-12.787,28.565-28.563,28.565c-15.777,0-28.564-12.788-28.564-28.565
	c0-15.772,12.787-28.562,28.564-28.562C57.274,675.508,70.062,688.298,70.062,704.07z"/>
<path opacity="0.1" fill="#8CC63F" d="M88.709,726.634c0,12.464-10.102,22.565-22.563,22.565c-12.463,0-22.564-10.102-22.564-22.565
	c0-12.459,10.102-22.562,22.564-22.562C78.607,704.071,88.709,714.175,88.709,726.634z"/>
<path opacity="0.1" fill="#8CC63F" d="M293.741,660.388c0,14.12-11.444,25.565-25.563,25.565c-14.12,0-25.564-11.445-25.564-25.565
	c0-14.116,11.444-25.562,25.564-25.562C282.297,634.825,293.741,646.271,293.741,660.388z"/>
<path opacity="0.1" fill="#8CC63F" d="M238.955,613.832c0,15.854-12.849,28.703-28.7,28.703c-15.854,0-28.702-12.85-28.702-28.703
	c0-15.848,12.849-28.699,28.702-28.699C226.106,585.133,238.955,597.984,238.955,613.832z"/>
<path opacity="0.1" fill="#8CC63F" d="M244.067,667.318c0,15.854-12.849,28.703-28.7,28.703c-15.854,0-28.702-12.85-28.702-28.703
	c0-15.848,12.849-28.699,28.702-28.699C231.219,638.619,244.067,651.471,244.067,667.318z"/>
<path opacity="0.1" fill="#8CC63F" d="M249.195,643.984c0,15.854-12.849,28.703-28.7,28.703c-15.854,0-28.702-12.85-28.702-28.703
	c0-15.848,12.849-28.699,28.702-28.699C236.347,615.285,249.195,628.137,249.195,643.984z"/>
<path opacity="0.1" fill="#8CC63F" d="M270.102,859.107c0,13.275-10.76,24.036-24.034,24.036c-13.275,0-24.035-10.761-24.035-24.036
	c0-13.271,10.76-24.033,24.035-24.033C259.342,835.074,270.102,845.836,270.102,859.107z"/>
<path opacity="0.1" fill="#8CC63F" d="M249.256,791.896c0,17.614-14.276,31.893-31.89,31.893c-17.614,0-31.891-14.278-31.891-31.893
	c0-17.609,14.276-31.889,31.891-31.889C234.979,760.007,249.256,774.286,249.256,791.896z"/>
<path opacity="0.1" fill="#8CC63F" d="M75.197,825.296c0,17.614-14.276,31.893-31.89,31.893c-17.614,0-31.891-14.278-31.891-31.893
	c0-17.609,14.276-31.889,31.891-31.889C60.921,793.407,75.197,807.687,75.197,825.296z"/>
<path opacity="0.1" fill="#8CC63F" d="M252.289,436.309c0,15.854-12.849,28.703-28.7,28.703c-15.854,0-28.702-12.85-28.702-28.703
	c0-15.848,12.849-28.699,28.702-28.699C239.44,407.609,252.289,420.461,252.289,436.309z"/>
<path opacity="0.1" fill="#8CC63F" d="M246.067,406.199c0,15.854-12.849,28.703-28.7,28.703c-15.854,0-28.702-12.85-28.702-28.703
	c0-15.848,12.849-28.699,28.702-28.699C233.219,377.5,246.067,390.352,246.067,406.199z"/>
<path opacity="0.1" fill="#8CC63F" d="M78.687,505.533c0,15.854-12.849,28.703-28.7,28.703c-15.854,0-28.702-12.85-28.702-28.703
	c0-15.848,12.849-28.699,28.702-28.699C65.838,476.834,78.687,489.686,78.687,505.533z"/>
<path opacity="0.1" fill="#8CC63F" d="M473.544,777.643c0,15.854-12.849,28.703-28.7,28.703c-15.854,0-28.702-12.85-28.702-28.703
	c0-15.848,12.849-28.699,28.702-28.699C460.695,748.943,473.544,761.795,473.544,777.643z"/>
<path opacity="0.1" fill="#8CC63F" d="M462.556,393.309c0,11.436-9.268,20.703-20.7,20.703c-11.435,0-20.702-9.268-20.702-20.703
	c0-11.43,9.268-20.699,20.702-20.699C453.288,372.609,462.556,381.879,462.556,393.309z"/>
<path opacity="0.15" fill="#8CC63F" d="M249.195,886.275c0,15.854-12.849,28.703-28.7,28.703c-15.854,0-28.702-12.85-28.702-28.703
	c0-15.848,12.849-28.699,28.702-28.699C236.347,857.576,249.195,870.428,249.195,886.275z"/>
<path opacity="0.1" fill="#8CC63F" d="M244.067,321.567c0,15.854-12.849,28.703-28.7,28.703c-15.854,0-28.702-12.85-28.702-28.703
	c0-15.848,12.849-28.699,28.702-28.699C231.219,292.868,244.067,305.72,244.067,321.567z"/>
<path opacity="0.1" fill="#8CC63F" d="M238.854,238.289c0,14.56-11.8,26.36-26.356,26.36c-14.56,0-26.359-11.801-26.359-26.36
	c0-14.553,11.8-26.355,26.359-26.355C227.054,211.934,238.854,223.736,238.854,238.289z"/>
<path opacity="0.1" fill="#8CC63F" d="M237.943,198.864c0,13.035-10.564,23.601-23.598,23.601c-13.035,0-23.6-10.565-23.6-23.601
	c0-13.029,10.564-23.597,23.6-23.597C227.379,175.268,237.943,185.835,237.943,198.864z"/>
<path opacity="0.1" fill="#8CC63F" d="M227.997,104.749c0,11.674-9.464,21.138-21.136,21.138c-11.674,0-21.138-9.464-21.138-21.138
	c0-11.671,9.464-21.136,21.138-21.136C218.533,83.613,227.997,93.078,227.997,104.749z"/>
<circle opacity="0.1" fill="#8CC63F" cx="211.983" cy="168.206" r="13.587"/>
<circle opacity="0.1" fill="#8CC63F" cx="220.494" cy="542.941" r="17.449"/>
<circle opacity="0.2" fill="#8CC63F" cx="38.652" cy="132.916" r="24.345"/>
<circle opacity="0.2" fill="#8CC63F" cx="197.652" cy="65.113" r="24.345"/>
<circle opacity="0.2" fill="#8CC63F" cx="410.318" cy="67.458" r="24.345"/>
<circle opacity="0.2" fill="#8CC63F" cx="41.498" cy="256.918" r="24.345"/>
<circle opacity="0.2" fill="#8CC63F" cx="389.148" cy="842.643" r="17.345"/>
<circle opacity="0.2" fill="#8CC63F" cx="443.148" cy="883.143" r="17.345"/>
<circle opacity="0.2" fill="#8CC63F" cx="58.843" cy="877.333" r="17.345"/>
<circle opacity="0.2" fill="#8CC63F" cx="58.843" cy="796.833" r="17.345"/>
<circle opacity="0.2" fill="#8CC63F" cx="90.343" cy="702.833" r="17.345"/>
<circle opacity="0.2" fill="#8CC63F" cx="42.341" cy="613.833" r="17.345"/>
<circle opacity="0.2" fill="#8CC63F" cx="41.498" cy="453.655" r="17.345"/>
<circle opacity="0.2" fill="#8CC63F" cx="50.986" cy="472.667" r="13.334"/>
<circle opacity="0.2" fill="#8CC63F" cx="40.484" cy="566.333" r="13.334"/>
<circle opacity="0.2" fill="#8CC63F" cx="424.486" cy="524.506" r="13.334"/>
<circle opacity="0.2" fill="#8CC63F" cx="443.148" cy="357.412" r="13.334"/>
<circle opacity="0.2" fill="#8CC63F" cx="267.648" cy="443.424" r="13.334"/>
<circle opacity="0.2" fill="#8CC63F" cx="419.827" cy="715.424" r="13.334"/>
<circle opacity="0.2" fill="#8CC63F" cx="410.318" cy="834.424" r="13.334"/>
<circle opacity="0.2" fill="#8CC63F" cx="412.331" cy="775.233" r="8.084"/>
<circle opacity="0.2" fill="#8CC63F" cx="433.161" cy="712.156" r="8.084"/>
<circle opacity="0.2" fill="#8CC63F" cx="440.145" cy="619.656" r="8.084"/>
<circle opacity="0.2" fill="#8CC63F" cx="281.652" cy="587.206" r="8.084"/>
<circle opacity="0.2" fill="#8CC63F" cx="297.57" cy="591.543" r="11.334"/>
<circle opacity="0.2" fill="#8CC63F" cx="419.827" cy="653.986" r="13.334"/>
<circle opacity="0.2" fill="#8CC63F" cx="109.327" cy="698.822" r="13.334"/>
<circle opacity="0.2" fill="#8CC63F" cx="77.009" cy="809.277" r="13.334"/>
<circle opacity="0.2" fill="#8CC63F" cx="82.659" cy="889.777" r="13.334"/>
<circle opacity="0.2" fill="#8CC63F" cx="116.159" cy="886.277" r="7.834"/>
<circle opacity="0.2" fill="#8CC63F" cx="126.659" cy="885.168" r="7.834"/>
<circle opacity="0.2" fill="#8CC63F" cx="86.332" cy="598.468" r="13.334"/>
<circle opacity="0.2" fill="#8CC63F" cx="32.992" cy="287.452" r="17.345"/>
<circle opacity="0.2" fill="#8CC63F" cx="40.993" cy="99.464" r="17.345"/>
<circle opacity="0.2" fill="#8CC63F" cx="377.807" cy="60.458" r="17.345"/>
<path opacity="0.1" fill="#8CC63F" d="M248.877,812.066c0,7.309-5.923,13.231-13.229,13.231c-7.308,0-13.231-5.923-13.231-13.231
	c0-7.305,5.924-13.229,13.231-13.229C242.954,798.837,248.877,804.762,248.877,812.066z"/>
<path fill="#6C3054" d="M148.074,290.76c0,9.097-7.375,16.471-16.473,16.471c-9.099,0-16.472-7.374-16.472-16.471
	c0-9.1,7.373-16.473,16.472-16.473C140.699,274.287,148.074,281.66,148.074,290.76z"/>
<g>
	<text transform="matrix(1 0 0 1 126.9844 296.7949)" fill="#FFFFFF" font-family="'CaeciliaLTStd-Heavy'" font-size="18">7</text>
</g>
<text transform="matrix(1 0 0 1 32.3418 45.6562)" fill="#6C3054" font-family="'ProximaNova-Bold'" font-size="8" letter-spacing="2">NORTH</text>
<polygon fill-rule="evenodd" clip-rule="evenodd" fill="#6C3054" points="59.899,31.22 50.986,0 42.074,31.22 50.986,28.876 "/>
<g>
	<text transform="matrix(1 0 0 1 346.2754 547.6982)" fill="#FFFFFF" font-family="'CaeciliaLTStd-Heavy'" font-size="18">13</text>
</g>
<g>
	<text transform="matrix(1 0 0 1 126.9844 745.8662)" fill="#FFFFFF" font-family="'CaeciliaLTStd-Heavy'" font-size="18">2</text>
</g>
</svg>
