<?xml version="1.0" encoding="utf-8"?>
<!-- Generator: Adobe Illustrator 16.0.0, SVG Export Plug-In . SVG Version: 6.00 Build 0)  -->
<!DOCTYPE svg PUBLIC "-//W3C//DTD SVG 1.1//EN" "http://www.w3.org/Graphics/SVG/1.1/DTD/svg11.dtd">
<svg version="1.1" id="Layer_1" xmlns="http://www.w3.org/2000/svg" xmlns:xlink="http://www.w3.org/1999/xlink" x="0px" y="0px" viewBox="0 0 640 361.633" enable-background="new 0 0 640 361.633" xml:space="preserve">
<rect y="0" display="none" fill-rule="evenodd" clip-rule="evenodd" fill="#FF00FF" width="640" height="362"/>
<g>
	<path fill-rule="evenodd" clip-rule="evenodd" fill="#FFFFFF" d="M591.375,127.581h-4.93v3.523h-9.416v-8.804h10.297v-4.622
		h-10.297v-8.582h8.76v3.432h4.928v-8.054H567.52v4.357h3.744v22.579h-3.744v4.314h23.855V127.581z M497.18,113.805v-9.331h-27.377
		v9.331h4.885v-4.708h5.902v22.314h-3.744v4.314h13.292v-4.314h-3.783v-22.314h5.941v4.708H497.18z M529.811,108.831v-4.357h-13.293
		v4.357h3.742v22.579h-3.742v4.314h13.293v-4.314h-3.785v-8.935h14.217v8.935h-3.783v4.314h13.291v-4.314h-3.742v-22.579h3.742
		v-4.357h-13.291v4.357h3.783v9.023h-14.217v-9.023H529.811z M294.771,295.467l-7.022-1.744l3.987-16.045l2.875,0.713l0.837-3.367
		l-10.095-2.508l-0.838,3.369l2.841,0.705l-4.04,16.268l-2.842-0.705l-0.782,3.145l17.986,4.469l1.713-6.898l-3.742-0.93
		L294.771,295.467z M210.165,258.417c-7.566-0.84-13.395,3.604-14.162,10.537c-0.769,6.966,3.997,12.751,11.459,13.578
		c3.595,0.398,10.236-0.129,10.629-3.678l0.778-7.033l-8.49-0.939l-0.355,3.219l4.416,0.49l-0.276,2.498
		c-0.215,1.938-3.898,2.029-5.849,1.812c-5.376-0.596-8.189-4.6-7.637-9.593c0.548-4.962,4.116-7.761,9.285-7.187
		c2.602,0.287,5.146,1.402,4.969,3.012l-0.19,1.708l4.075,0.451l0.355-3.22C219.499,261.115,214.511,258.9,210.165,258.417z
		 M247.491,267.827l2.873,0.559l-3.235,16.646l-2.874-0.559l-0.619,3.182l10.211,1.984l0.618-3.182l-2.909-0.564l3.237-16.648
		l2.908,0.564l0.624-3.21l-10.211-1.986L247.491,267.827z M344.246,289.254c-1.078-0.84-2.26-1.334-4.01-1.857l-10.753-3.227
		l-0.941,3.135l2.802,0.842l-4.873,16.242l-2.806-0.842l-0.933,3.105l11.284,3.383c1.255,0.377,2.361,0.641,3.612,0.67
		c2.76,0.033,5.545-1.582,6.485-4.717c0.714-2.373,0.182-4.914-2.197-6.457l0.021-0.062c2.086-0.373,3.687-1.861,4.314-3.953
		C347,293.016,346.119,290.68,344.246,289.254z M339.804,304.42c-0.43,1.426-1.499,2.484-2.833,2.604
		c-0.55,0.039-1.196-0.084-1.759-0.254l-4.354-1.307l2.004-6.68l4.521,1.357C339.526,300.782,340.382,302.489,339.804,304.42z
		 M341.73,294.645c-0.515,1.709-1.906,2.637-3.754,2.084l-4.125-1.238l1.758-5.857l3.629,1.088c0.828,0.248,1.425,0.531,1.909,0.951
		C341.93,292.424,342.063,293.536,341.73,294.645z M372.519,299.208l2.86,0.641l-3.703,16.549l-2.856-0.637l-0.706,3.162
		l18.222,4.064l1.337-5.967l-3.77-0.84l-0.577,2.58l-7.195-1.605l1.443-6.453l7.867,1.758l0.758-3.391l-7.865-1.756l1.406-6.289
		l6.689,1.492l-0.562,2.518l3.764,0.84l1.319-5.904l-17.714-3.955L372.519,299.208z M431.264,307.977
		c-1.295-0.615-2.741-0.953-4.511-1.242l-10.638-1.74l-0.526,3.23l2.891,0.473l-2.742,16.736l-2.891-0.473l-0.522,3.199l10.13,1.658
		l0.521-3.199l-2.787-0.455l0.931-5.678l2.209,0.363c1.396,0.227,1.786,0.592,2.153,1.559l2.453,6.531
		c0.532,1.459,1.075,1.951,3.084,2.279l2.818,0.461l0.527-3.197l-0.784-0.129c-0.815-0.133-1.267-0.373-1.507-1.016l-1.997-5.285
		c-0.337-0.928-0.991-1.402-0.991-1.402l0.01-0.064c2.938-0.457,5.075-2.453,5.607-5.684
		C435.235,311.641,433.808,309.264,431.264,307.977z M430.189,314.534c-0.407,2.48-2.154,3.566-4.5,3.184l-4.009-0.658l1.218-7.438
		l3.262,0.535c1.121,0.184,2.017,0.463,2.651,0.869C430.049,311.762,430.436,313.032,430.189,314.534z M460.836,318.34l3.822,0.109
		l0.099-3.535l4.614,0.131l-0.486,16.758l-2.928-0.084l-0.093,3.238l10.396,0.301l0.096-3.24l-2.963-0.086l0.49-16.756l4.646,0.135
		l-0.104,3.537l3.823,0.109l0.201-7.008l-21.409-0.617L460.836,318.34z M637.031,160.404c-2.719-3.672-7.055-6.184-12.211-7.082
		c-0.729-0.162-1.436-0.308-2.154-0.428c-2.309-0.39-4.639-0.586-6.922-0.586c-15,0-27.871,8.445-32.789,21.513
		c-0.047,0.128-0.148,0.229-0.273,0.278c-0.127,0.051-0.27,0.04-0.391-0.02c-0.877-0.448-3.027-1.386-5.074-2.302
		c-0.008-0.005-0.01-0.01-0.02-0.013c-0.586-0.263-0.42-0.735-0.42-0.735l-0.072-0.022c0.275-1.301,0.465-2.396,0.582-2.938
		c0.865-3.831-2.871-4.709-5.156-4.879h-1.926c-8.299,0.515-10.461,1.267-10.461,5.173c0,3.208-0.316,7.82-0.316,7.82
		c-1.512,12.89-6.668,20.995-11.754,26.305c-1.119,1.051-1.732,1.511-2.943,2.43c-2.773,2.1-5.652,3.729-8.494,4.838
		c-3.914,1.408-7.033,1.653-8.039,1.696c-0.117,0.001-0.23,0.01-0.344,0.01c-2.719,0-5.145-0.596-7.232-1.762
		c0.232-0.191,0.379-0.313,0.379-0.313l0.014-0.027c9.418-7.854,12.871-14.724,12.871-14.724
		c18.535-30.446-5.445-30.446-5.445-30.446v0.016c-0.279-0.013-0.566-0.016-0.857-0.005l-0.193-0.002
		c-21.396,0-27.23,28.233-27.287,28.518c-1.09,7.556-0.26,13.886,2.465,18.788c0.07,0.123,0.078,0.271,0.027,0.405
		s-0.158,0.235-0.293,0.28c-3.184,1.066-6.207,1.543-8.979,1.419c-4.752-0.212-8.539-2.198-10.955-5.739
		c-3.346-4.896-3.684-12.332-0.936-20.4c2.223-6.532,6.318-13.143,11.633-18.871l-0.012-0.009c5.91-6.922,0.17-7.32,0.17-7.32
		c-8.209-0.718-12.547,1.312-14.592,2.85c-0.023,0.019-0.051,0.036-0.074,0.055c-0.137,0.104-0.262,0.206-0.377,0.303
		c-0.377,0.317-0.641,0.586-0.754,0.712c-0.023,0.032-0.047,0.066-0.074,0.098c-0.203,0.237-0.293,0.384-0.293,0.384l0.012,0.007
		c-4.367,5.79-7.699,12.222-9.613,18.627c-0.041,0.14-0.186,0.405-0.32,0.461c-2.427,0.993-4.83,1.872-7.129,2.614
		c-0.152,0.051-0.324,0.018-0.453-0.087c-0.124-0.104-0.187-0.267-0.166-0.428c1.829-14.349-6.087-25.903-19.258-28.1
		c-1.708-0.286-3.532-0.399-5.369-0.348c-7.361,0.282-13.086,5.165-13.141,5.214c-0.054,0.046-0.114,0.079-0.18,0.1
		c-6.079,1.764-10.185,4.801-12.562,7.039c-4.352,4.499-7.702,9.878-9.672,15.534c-2.821,8.102-2.646,16.244,0.489,22.929
		c0.109,0.231,0.015,0.51-0.215,0.628c-5.938,3.08-11.823,3.861-16.372,2.152c-6.263-2.35-9.907-9.347-9.766-18.73
		c-0.008-0.039-0.009-0.077-0.008-0.116c0.008-0.098,0.744-9.927,5.755-23.187c0.063-0.169,0.217-0.287,0.396-0.307
		c0.585-0.064,1.17-0.142,1.758-0.229c8.966-0.997,26.194-5.383,41.03-23.599c2.613-3.441,5.054-6.976,7.246-10.493
		c5.329-8.551,8.81-17.398,9.809-24.91c0.998-7.512-0.61-12.992-4.526-15.429c-1.55-0.964-3.418-1.454-5.552-1.454
		c-8.217,0-19.45,7.099-29.313,18.525c-0.013,0.017-0.03,0.03-0.043,0.045l-0.214,0.25c-0.008,0.009-0.018,0.021-0.025,0.028
		c-14.177,16.4-23.861,35.945-29.496,49.459c-0.087,0.212-0.314,0.33-0.537,0.286c-0.613-0.125-1.229-0.25-1.844-0.406
		c-4.11-1.034-7.947-2.807-11.399-5.266c-0.114-0.08-0.186-0.206-0.198-0.344c-0.015-0.137,0.033-0.274,0.13-0.375
		c6.747-7.108,12.66-14.697,17.577-22.557c0.365-0.565,0.722-1.126,1.069-1.679c5.326-8.551,8.812-17.399,9.81-24.91
		c0.997-7.513-0.611-12.992-4.525-15.429c-1.541-0.959-3.406-1.445-5.545-1.448c-0.043,0-0.087-0.007-0.131-0.02l-0.097,0.011
		c-2.02,0.039-4.228,0.496-6.596,1.359c-10.388,3.148-20.334,11.037-29.596,23.45c-0.123,0.163-0.335,0.23-0.525,0.172
		c-0.193-0.062-0.33-0.237-0.338-0.439c-0.411-10.852,1.299-22.482,4.955-33.636c4.517-13.791,11.792-26.422,21.037-36.531
		c0.149-0.16,0.389-0.201,0.581-0.097c14.888,8.06,66.598,34.346,107.392,34.395c0.039-0.01,0.074-0.02,0.125-0.015
		c0.809,0.021,1.617,0.033,2.42,0.033c27.583,0,46.924-12.614,47.036-30.672c0.135-21.744-28.762-43.352-63.101-47.183
		c-6.881-0.768-13.761-0.75-20.235,0.051c-0.058,0.008-0.117,0.004-0.174-0.009l-0.135-0.034
		c-28.148,3.232-55.312,15.442-74.537,33.505c-0.156,0.149-0.392,0.174-0.578,0.059c-23.37-14.348-51.632-22.281-81.727-22.938
		c-1.323-0.03-2.636-0.043-3.951-0.043c-24.286,0-47.847,4.93-68.133,14.255c-0.023,0.011-0.048,0.021-0.072,0.027
		c-2.726,1.215-5.65,2.692-8.695,4.393c-3.716,2.044-7.299,4.243-10.65,6.543c-19.447,12.985-38.461,30.797-50.989,43.456
		c-0.134,0.136-0.334,0.18-0.513,0.11c-3.112-1.203-6.137-2.556-8.994-4.022c-0.93-0.522-22.701-12.598-46.238-12.598
		c-0.973,0-1.949,0.021-2.9,0.063c-0.518,0.018-1.029,0.045-1.538,0.08l-0.443,0.034c-0.613,0.046-1.192,0.099-1.766,0.162
		l-0.356,0.033c-0.033,0.011-0.066,0.021-0.101,0.025c-10.883,1.337-20.642,6.277-27.476,13.912
		c-6.053,6.762-9.134,15.02-8.679,23.253c0.88,15.932,14.971,27.928,33.504,28.525c0.254,0.01,0.507,0.012,0.759,0.014l0.173,0.003
		c0.022,0,0.042,0.002,0.062,0.004l0.131-0.002l0.268,0.004c2.726,0,5.533-0.265,8.34-0.787c16.864-2.494,33.442-10.701,46.7-23.112
		c0.964-0.902,1.962-1.887,3.139-3.097c0.025-0.025,0.052-0.046,0.078-0.064l0.45-0.485c0.597-0.626,1.18-1.253,1.749-1.883
		c2.072-2.229,4.069-4.367,6-6.423c0.115-0.124,0.284-0.175,0.452-0.139c5.887,1.313,12.009,1.979,18.2,1.979
		c8.367,0,16.598-1.24,23.798-3.585c0.214-0.068,0.446,0.018,0.559,0.212c0.114,0.192,0.079,0.439-0.083,0.593
		c-14.022,13.127-25.861,28.906-35.184,46.896c-0.012,0.022-0.025,0.042-0.039,0.061c-2.777,5.81-5.641,11.9-8.509,18.107
		c-0.064,0.136-0.188,0.235-0.334,0.267l-29.362,6.306c-0.24,0.043-0.457-0.074-0.544-0.289
		c-4.944-12.255-17.157-19.87-31.871-19.87c-0.219,0-0.437,0.002-0.653,0.006c-0.756,0.012-1.505,0.047-2.25,0.099
		c-0.053,0.002-0.104-0.003-0.152-0.015c-17.295,1.556-34.472,9.239-48.378,21.643C9.026,180.973-0.44,200.632,0.016,219.782
		c0.347,14.556,6.555,27.446,17.48,36.295c9.566,7.746,22.007,11.843,35.974,11.843c19.571,0,39.713-8,55.264-21.947
		c2.142-1.922,4.252-4.029,6.272-6.264c0.031-0.033,0.064-0.061,0.102-0.084c18.767-20.045,28.639-46.647,28.737-46.915
		c5.203-14.19,11.324-29.789,11.385-29.945c0.019-0.045,0.042-0.087,0.074-0.125c0.086-0.229,0.174-0.459,0.26-0.688l0.223-0.581
		c0.057-0.152,0.188-0.264,0.346-0.299l40.135-8.621c0.179-0.037,0.363,0.028,0.477,0.169c0.113,0.144,0.136,0.338,0.057,0.501
		c-9.527,20.275-11.107,38.024-4.328,48.698c4.218,6.647,11.495,10.161,21.039,10.161c5.615-0.004,11.882-1.254,18.653-3.715
		c0.219-0.082,0.467,0.012,0.582,0.216c3.578,6.403,9.594,11.067,16.939,13.138c2.91,0.82,5.98,1.234,9.125,1.234
		c16.362,0,32.356-10.91,38.897-26.531c0.759-1.818,1.383-3.676,1.854-5.521c0.043-0.172,0.177-0.303,0.347-0.348
		c1.637-0.406,3.353-0.891,5.252-1.482c0.151-0.045,0.316-0.016,0.44,0.083c0.125,0.099,0.192,0.255,0.177,0.412
		c-0.989,12.181,4.347,21.998,13.922,25.622c2.674,1.01,5.613,1.521,8.737,1.521c10.857,0,22.869-6.242,31.342-16.293
		c0.12-0.144,0.317-0.205,0.494-0.152c0.18,0.05,0.315,0.201,0.344,0.387c1.319,8.551,6.301,15.247,13.666,18.373
		c2.317,0.982,5.063,1.482,8.155,1.482c6.259,0,13.691-2.059,20.396-5.645c0.191-0.105,0.432-0.062,0.58,0.102
		c2.789,3.097,6.288,5.27,10.396,6.453c2.294,0.662,4.738,0.998,7.262,0.998c13.524,0,27.71-9.531,34.499-23.178
		c0.82-1.648,1.534-3.355,2.123-5.074c0.052-0.152,0.176-0.266,0.328-0.307c2.312-0.613,4.726-1.371,7.174-2.254
		c0.155-0.058,0.33-0.029,0.463,0.076c0.129,0.103,0.196,0.266,0.174,0.432c-1.093,8.975,0.839,16.992,5.439,22.578
		c3.83,4.643,9.293,7.344,15.809,7.807c6.32,0.451,13.389-1.238,20.24-4.838c0.164-0.089,0.367-0.069,0.514,0.045
		c6.719,5.16,15.381,5.361,16.512,5.366c0.043-0.014,0.094-0.021,0.137-0.021l0.322,0.002c5.824,0,12.287-1.871,18.693-5.413
		c14.199-7.847,24.973-23.353,30.973-39.234c0.268-0.508,0.895-0.219,0.895-0.219l0.012-0.01c1.781,0.751,3.559,1.495,4.084,1.751
		c0.422,0.206,0.848,0.404,1.273,0.604l0.131,0.06c0.193,0.09,0.303,0.293,0.275,0.5c-0.262,1.874-0.381,3.767-0.348,5.626
		c0.086,4.848,1.111,9.633,3.059,14.227c0.016,0.039,0.029,0.078,0.033,0.119c1.041,2.163,12.555,26.631,7.623,40.811
		c-1.295,3.723-3.639,6.424-6.973,8.025c-0.117,0.053-0.254,0.062-0.371,0.018c-0.168-0.061-0.299-0.213-0.322-0.391
		c-0.711-5.453-2.385-9.729-3.666-12.357c-0.412-0.907-0.9-1.804-1.455-2.677l-0.271-0.443l-0.07-0.1
		c-0.109-0.167-0.189-0.286-0.236-0.353c-0.02-0.018-0.035-0.039-0.051-0.062c-4.453-6.343-11.846-10.607-18.395-10.607
		c-4.059,0-7.516,1.6-9.998,4.626c-3.939,4.843-3.836,11.638,0.281,18.179c0.016,0.029,0.029,0.057,0.043,0.088l0.105,0.148
		c0.641,0.99,1.352,1.943,2.127,2.842c5.951,7.117,14.27,11.293,23.418,11.762c0.158,0.008,0.301,0.09,0.383,0.223
		c0.082,0.135,0.098,0.299,0.033,0.443c-4.082,9.493-10.67,16.628-25.02,21.204c-0.23,0.07-0.475-0.035-0.578-0.25
		c-3.705-7.896-9.672-14.832-17.732-20.618c-27.248-20.611-70.88-20.855-71.319-20.855c-21.197,0-46.88,3.574-90.92,29.503
		c-0.108,0.062-0.234,0.082-0.355,0.053c-44.935-10.843-76.921-20.06-77.24-20.151c-56.154-14.79-84.877-15.54-90.065-15.54
		c-0.605,0-0.907,0.012-0.912,0.012c-51.229,0-75.429,16.1-86.71,29.606c-12.186,14.587-12.326,29.323-12.326,29.47
		c0,0.221,0.007,0.438,0.015,0.65l0.013,0.43c0.001,0.062-0.009,0.121-0.03,0.176c-0.006,0.699,0.024,3.939,1.003,8.516l0.108,0.5
		c1.938,8.635,7.044,21.117,20.364,31.568c16.117,12.645,40.036,19.057,71.089,19.057c0.051,0.002,1.507,0.111,4.175,0.111
		c11.358,0,52.338-2.129,102.752-29.527c0.068-0.037,0.148-0.059,0.229-0.059c0.04,0,0.08,0.006,0.123,0.018
		c16.239,4.301,33.733,9.232,51.994,14.66c70.097,20.83,123.119,21.949,123.921,21.963c38.887,0,57.62-15.596,66.489-28.68
		c9.609-14.186,10.047-28.568,10.047-28.711c0-4.639-0.529-9.123-1.574-13.322c-0.055-0.236,0.07-0.477,0.295-0.564
		c23.582-8.967,27.521-22.712,29.414-30.106c0.045-0.178,0.189-0.316,0.367-0.352c15.586-3.143,26.109-17.957,24.482-34.458
		c-0.396-4.004-1.51-7.902-3.322-11.589c-0.018-0.038-0.033-0.077-0.041-0.117c-7.633-15.222-10.057-23.417-10.744-27.614
		c-0.027-0.161,0.029-0.324,0.152-0.434c0.121-0.109,0.293-0.148,0.447-0.105c6.791,1.881,13.553,2.875,19.559,2.875h0.004
		c2.578,0,5.01-0.182,7.236-0.544c0.27-0.044,0.486-0.077,0.709-0.12c5.07-0.928,8.91-2.775,11.408-5.488
		C640.621,176.125,642.021,167.134,637.031,160.404z M382.541,161.86c1.004-2.123,2.067-4.2,3.155-6.176
		c0.015-0.033,0.034-0.066,0.055-0.096c0.03-0.047,0.062-0.09,0.085-0.131c10.903-20.095,33.832-47.021,42.341-47.021
		c1.373,0,3.064,0.685,3.351,3.951c0.416,4.701-3.479,13.933-10.425,24.694c-10.736,14.491-24.244,23.523-38.061,25.458
		c-0.023,0.003-0.046,0.005-0.066,0.005c-0.15,0-0.295-0.07-0.385-0.194C382.485,162.206,382.467,162.019,382.541,161.86z
		 M369.862,37.67c16.86-15.444,43.184-25.19,70.419-26.069c1.365-0.045,2.74-0.066,4.084-0.066c25.515,0,46.34,7.916,57.137,21.721
		c3.834,5.66,3.113,10.087,3,10.662c-0.041,19.463-22.951,20.451-27.547,20.451c-0.654,0-1.018-0.019-1.018-0.019
		c-48.067,0-93.252-19.821-105.957-25.895c-0.143-0.068-0.244-0.205-0.268-0.362C369.689,37.937,369.744,37.776,369.862,37.67z
		 M128.137,90.112l-1.098,1.155c-0.313,0.313-0.628,0.625-0.956,0.933c-13.942,13.051-31.976,20.881-49.483,21.482h-0.015
		c-0.045,0-0.088-0.005-0.129-0.018l-0.331,0.005l-0.153-0.002c-13.105-0.401-23.036-7.898-23.613-17.827
		c-0.296-5.093,1.817-10.312,5.953-14.696c5.999-6.358,15.497-10.154,25.407-10.154c0.658,0,1.317,0.016,1.986,0.049
		c0.987,0.046,1.964,0.133,2.988,0.266c5.696,1.024,15.975,4.43,32.768,14.854c0.028,0.009,0.055,0.021,0.08,0.036
		c1.982,1.12,4.085,2.153,6.431,3.153c0.144,0.06,0.247,0.187,0.279,0.339C128.285,89.839,128.243,89.996,128.137,90.112z
		 M105.259,172.08c0.127-0.032,0.257-0.012,0.367,0.055c0.109,0.065,0.188,0.173,0.217,0.298c1.078,4.547,0.62,9.647-1.286,14.359
		c-3.752,9.273-12.843,16.205-22.106,16.859c-0.72,0.051-1.375,0.074-2.009,0.074c-3.391,0-6.037-0.73-8.323-2.3
		c-0.737-0.56-4.307-3.511-3.987-7.861c0.288-3.942,3.686-7.733,10.097-11.271C78.368,182.222,91.072,175.705,105.259,172.08z
		 M135.599,166.268c-3.942,8.66-6.422,14.31-6.445,14.364c-17.895,39.07-28.916,49.145-29.377,49.555
		c-0.01,0.01-0.02,0.018-0.032,0.025l-0.111,0.125c-0.311,0.344-0.623,0.689-0.944,1.029
		c-12.835,13.559-30.467,21.655-47.166,21.655c-9.82,0-18.617-2.902-25.436-8.395c-8.401-6.764-12.988-16.74-12.919-28.093
		c0.1-16.343,9.487-33.425,25.113-45.695c11.844-9.301,25.693-14.423,38.996-14.423c7.077,0,13.821,1.501,19.499,4.345
		c0.016,0.008,0.031,0.016,0.047,0.024c2.195,1.065,4.08,2.567,5.602,4.467c0.104,0.126,0.133,0.296,0.08,0.45
		c-0.051,0.155-0.177,0.272-0.336,0.312c-7.642,1.913-21.964,5.999-32.018,11.886l-0.475,0.276
		c-0.017,0.013-0.032,0.023-0.047,0.033c-11.05,6.609-16.486,17.108-12.927,24.964c2.411,5.325,8.634,8.503,16.646,8.503
		c4.847,0,9.991-1.168,14.873-3.378c1.681-0.762,3.326-1.652,4.893-2.646c0.043-0.025,0.087-0.045,0.132-0.059
		c10.167-6.363,16.897-16.504,18.024-27.18c0.253-2.407,0.223-4.84-0.094-7.232c-0.031-0.248,0.13-0.478,0.375-0.531l23.509-5.05
		c0.177-0.035,0.359,0.026,0.474,0.168C135.648,165.91,135.673,166.104,135.599,166.268z M341.547,135.467
		c11.013-15.336,25.564-30.861,32.066-30.861c1.37,0,3.067,0.687,3.352,3.951c0.701,7.965-10.694,27.921-24.885,43.575
		c-0.087,0.101-0.214,0.157-0.348,0.159h-0.006c-0.131,0-0.254-0.053-0.346-0.146c-4.177-4.323-7.506-9.786-9.891-16.232
		C341.434,135.762,341.457,135.597,341.547,135.467z M346.2,157.518c0.087,0.091,0.137,0.214,0.131,0.342
		c-0.001,0.127-0.053,0.25-0.146,0.336l-0.247,0.236c-0.229,0.221-0.459,0.439-0.688,0.653
		c-7.062,6.005-14.691,11.246-22.704,15.595c-0.069,0.039-0.147,0.057-0.227,0.057c-0.108,0-0.215-0.035-0.299-0.105
		c-0.152-0.12-0.212-0.321-0.16-0.506c2.244-7.699,5.362-15.19,9.275-22.27c0.01-0.033,0.028-0.067,0.048-0.098
		c0.035-0.045,0.065-0.088,0.089-0.131c1.351-2.486,2.931-5.152,4.691-7.921c0.093-0.147,0.266-0.247,0.434-0.221
		c0.172,0.01,0.323,0.114,0.401,0.27C339.368,149.076,342.53,153.708,346.2,157.518z M282.874,204.137
		c-10.157,10.577-23.968,12.995-32.333,5.847c-0.573-0.49-1.092-1.024-1.578-1.578c-0.545-0.756-1.054-1.541-1.487-2.389
		c-2.812-5.512-3.006-12.527-0.534-19.249c0.883-2.397,2.083-4.717,3.568-6.891c0.101-0.15,0.283-0.227,0.455-0.205
		c0.179,0.023,0.331,0.146,0.39,0.314c1.099,3.082,6.311,13.131,27.264,13.131c2.993,0,6.23-0.207,9.618-0.613
		c0.628-0.062,1.311-0.145,2.025-0.236C288.819,196.409,286.358,200.511,282.874,204.137z M280.448,187.206
		c-17.166,0-17.52-10.9-17.521-11.011c0-6.751,6.164-9.148,10.682-9.619c1.485-0.073,17.96-0.435,17.749,19.463
		C287.352,186.802,283.674,187.206,280.448,187.206z M307.985,179.368c-0.004,0.03-0.012,0.059-0.021,0.087
		c-0.236,0.663-0.443,1.322-0.64,1.983c-0.045,0.143-0.153,0.258-0.294,0.309c-1.762,0.646-3.652,1.272-5.788,1.912
		c-0.146,0.045-0.306,0.016-0.425-0.078c-0.124-0.092-0.194-0.237-0.19-0.393c0.399-14.879-9.271-26.542-24.062-29.025
		c-1.834-0.308-3.763-0.463-5.729-0.463h-0.181c-8.072,0.108-14.191,4.801-14.251,4.848c-0.053,0.042-0.115,0.071-0.181,0.088
		c-6.733,1.635-11.273,4.622-13.898,6.839c-4.899,4.566-8.682,10.139-10.924,16.104c-2.274,6.048-2.892,12.343-1.788,18.201
		c0.045,0.241-0.101,0.48-0.337,0.548c-1.752,0.512-3.422,0.886-4.966,1.11c-1.377,0.2-2.705,0.303-3.947,0.303
		c-5.765,0-10.053-2.21-12.398-6.396c-5.191-9.262-0.685-27.225,12.056-48.052c0.071-0.118,0.191-0.198,0.327-0.222
		c5.883-1,11.798-2.246,17.583-3.7c38.093-9.588,69.302-27.508,79.504-45.653c3.178-5.654,4.044-10.94,2.571-15.708
		c-0.502-1.623-1.269-3.166-2.284-4.588c-0.811-1.048-1.719-2.016-2.694-2.864c-4.336-3.772-10.126-5.684-17.211-5.684
		c-25.381,0-60.611,24.136-85.672,58.694c-4.098,5.653-7.758,11.337-10.875,16.897c-0.067,0.12-0.182,0.206-0.316,0.233
		l-41.22,8.855c-0.177,0.036-0.357-0.026-0.469-0.163c-0.114-0.139-0.141-0.328-0.071-0.492
		c14.009-32.809,35.179-60.43,61.221-79.881c0.02-0.024,0.044-0.048,0.072-0.068c0.683-0.52,1.036-1.028,1.02-1.472
		c-0.02-0.534-0.569-0.896-0.575-0.899c-0.987-0.73-2.096-1.091-3.324-1.091c-1.333,0-2.553,0.424-3.342,0.78
		c-5.558,2.966-11.087,6.436-16.408,10.3c-0.032,0.024-0.068,0.044-0.105,0.058c-2.683,1.057-3.481,1.371-3.752,1.466l0.004,0.008
		c-7.158,2.751-15.174,4.146-23.827,4.146c-6.431,0.002-13.06-0.777-19.702-2.311c-0.168-0.037-0.301-0.163-0.351-0.328
		c-0.047-0.166-0.005-0.343,0.114-0.467c13.878-14.476,23.258-23.561,28.68-28.635c0.028-0.025,0.057-0.045,0.088-0.062
		c0.121-0.12,0.245-0.237,0.369-0.354l0.297-0.285c2.16-2.011,3.7-3.39,4.612-4.194c22.932-19.578,56.551-30.803,92.243-30.803
		c1.255,0,2.515,0.014,3.78,0.04c27.799,0.607,54.062,7.746,75.949,20.646c0.126,0.075,0.212,0.204,0.232,0.348
		c0.021,0.145-0.027,0.29-0.127,0.396c-10.423,10.865-18.318,25.09-22.837,41.137c-4.188,14.87-5.079,30.061-2.577,43.929
		c0.021,0.114,0,0.232-0.06,0.33c-6.342,10.606-12.175,23.213-17.337,37.472C309.953,172.358,308.149,178.78,307.985,179.368z
		 M225.862,138.364c2.664-3.824,5.581-7.723,8.672-11.586c19.896-24.854,43.22-43.009,60.865-47.38
		c0.508-0.09,1.779-0.281,3.323-0.281c5.965,0,9.286,2.698,9.345,7.593c0.083,18.488-31.727,39.917-75.637,50.958
		c-1.84,0.463-3.825,0.933-6.07,1.438c-0.034,0.008-0.07,0.012-0.104,0.012c-0.157,0-0.307-0.079-0.397-0.212
		C225.748,138.741,225.751,138.527,225.862,138.364z M367.068,169.687c-2.897,7.736-4.37,12.973-4.52,13.51
		c-0.004,0.029-0.01,0.061-0.02,0.088c-1.076,3.037-1.779,6.11-2.09,9.134c-0.008,0.089-0.041,0.175-0.096,0.245
		c-7.867,10.132-18.047,16.428-26.574,16.428c-1.865,0-3.625-0.307-5.223-0.906c-6.264-2.35-9.908-9.348-9.767-18.729
		c-0.006-0.04-0.009-0.08-0.006-0.119c0.006-0.092,0.164-2.25,0.856-5.934c0.026-0.15,0.122-0.276,0.259-0.342
		c10.714-5.276,20.938-12.444,30.396-21.306c0.173-0.16,0.437-0.173,0.619-0.029c4.219,3.259,8.88,5.574,13.85,6.876
		c0.654,0.172,1.31,0.311,1.962,0.447c0.137,0.028,0.254,0.114,0.321,0.236C367.106,169.409,367.115,169.556,367.068,169.687z
		 M442.517,205.344c-10.374,10.927-22.158,11.067-27.455,6.423c-1.192-1.044-2.113-2.322-2.815-3.75
		c-2.197-4.841-2.19-11.029,0.051-17.111c0.818-2.234,1.917-4.406,3.257-6.453c0.102-0.154,0.276-0.234,0.468-0.212
		c0.187,0.028,0.335,0.157,0.391,0.334c0.837,2.768,4.94,11.796,22.553,11.796c2.689,0,5.613-0.21,8.695-0.625
		c0.484-0.056,0.976-0.133,1.463-0.201C447.616,198.944,445.398,202.308,442.517,205.344z M450.967,189.733
		c-3.611,0.707-6.913,1.07-9.801,1.07c-14.856,0-15.059-9.456-15.059-9.551c0-8.454,8.669-9.782,11.349-9.99
		C437.456,171.262,453.553,171.59,450.967,189.733z M517.84,202.787c-0.785,0.612-1.51,1.153-2.15,1.618
		c-0.145-0.029-0.264-0.121-0.33-0.25c-0.324-0.631-0.607-1.299-0.848-1.988c-2.754-7.824-0.324-17.996,6.666-27.909
		c0.732-0.949,1.625-1.972,2.615-2.858c0.447-0.346,6.18-4.695,9.459,0.392c1.34,2.311,1.111,5.746-0.674,10.207
		c-0.004,0.041-0.014,0.08-0.027,0.118c-0.219,0.544-0.451,1.093-0.691,1.647C528.736,190.813,523.795,197.481,517.84,202.787z
		 M384.519,272.715c1.662-0.83,3.315-1.627,4.964-2.408c11.638-5.353,42.226-17.784,75.423-17.784c0,0,50.991,1.201,70.843,32.976
		c0.07,0.154,0.1,0.41-0.328,0.525c-10.289,1.723-22.348,2.604-35.879,2.604c-42.991,0-87.735-8.848-88.183-8.938
		c-8.609-1.896-17.601-3.941-26.735-6.08c-0.195-0.047-0.341-0.211-0.363-0.41C384.235,273,384.339,272.805,384.519,272.715z
		 M530.471,332.77c-10.951,11.381-28.543,17.154-52.288,17.154c-0.004,0-0.619,0.029-1.879,0.029
		c-9.787,0-48.501-1.773-135.817-24.629c-8.148-2.328-16.186-4.574-23.911-6.684l-17.375-4.656
		c-68.887-18.07-95.099-20.074-103.249-20.088c-16.216-0.43-24.886,5.949-28.667,9.865c-0.259,0.318-1.821,2.357-0.593,3.586
		c0,0,0.822,0.992,6.329-0.557c0.669-0.217,1.332-0.416,1.983-0.602c0.009-0.004,0.018-0.006,0.028-0.01l0,0
		c8.08-2.301,14.611-2.41,15.731-2.41l0.254,0.002c-0.008,0,0.345-0.02,1.077-0.02c6.231,0,31.447,1.23,94.322,17.039
		c0.196,0.049,0.341,0.219,0.36,0.42c0.019,0.203-0.093,0.395-0.278,0.48c-49.072,22.471-87.714,22.73-89.335,22.73
		c-30.943,0-53.813-6.922-67.992-20.568c-11.417-10.99-13.72-23.297-14.181-28.078c1.564-48.179,77.119-49.567,85.729-49.567
		c0.642,0,0.981,0.006,0.981,0.006c34.102,0,84.641,13.871,85.147,14.01c25.208,6.962,47.939,13.026,67.598,18.036l14.704,3.691
		c29.695,7.324,40.126,9.059,40.229,9.076c31.736,5.449,59.899,8.213,83.718,8.213c17.902,0,33.629-1.561,46.744-4.641
		c0.252-0.064,0.504,0.096,0.572,0.344c0.922,3.475,1.393,7.164,1.393,10.971C541.811,306.042,542.229,320.553,530.471,332.77z
		 M577.268,251.777c-0.078,0.104-0.193,0.168-0.32,0.186c-1.496,0.201-3.07,0.303-4.68,0.303c-0.076,0-0.154-0.004-0.229-0.004
		c-9.391-0.037-15.057-8.057-15.395-8.543c-2.373-3.684-2.656-7.226-0.668-9.532c1.1-1.262,2.639-1.926,4.445-1.926
		c3.482,0,7.873,2.418,11.195,6.159c3.172,4.031,5.098,8.398,5.742,13.004C577.377,251.548,577.344,251.677,577.268,251.777z
		 M611.949,182.408c-4.994,0-10.906-1.064-17.09-3.077c-0.24-0.079-0.377-0.332-0.314-0.577
		c2.291-8.688,10.473-14.842,19.896-14.964h0.018c6.893,0.149,12.295,4.17,12.295,9.154l0.006,0.203
		C626.172,179.053,620.773,182.408,611.949,182.408z"/>
</g>
</svg>
