<svg xmlns="http://www.w3.org/2000/svg" width="640" height="361.633"><path fill-rule="evenodd" clip-rule="evenodd" fill="#fff" d="M591.375 127.581h-4.93v3.523h-9.416v-8.804h10.297v-4.622h-10.297v-8.582h8.76v3.432h4.928v-8.054h-23.197v4.357h3.744v22.579h-3.744v4.314h23.855v-8.143zm-94.195-13.776v-9.331h-27.377v9.331h4.885v-4.708h5.902v22.314h-3.744v4.314h13.292v-4.314h-3.783v-22.314h5.941v4.708h4.884zm32.631-4.974v-4.357h-13.293v4.357h3.742v22.579h-3.742v4.314h13.293v-4.314h-3.785v-8.935h14.217v8.935h-3.783v4.314h13.291v-4.314h-3.742v-22.579h3.742v-4.357h-13.291v4.357h3.783v9.023h-14.217v-9.023h3.785zm-235.04 186.636l-7.022-1.744 3.987-16.045 2.875.713.837-3.367-10.095-2.508-.838 3.369 2.841.705-4.04 16.268-2.842-.705-.782 3.145 17.986 4.469 1.713-6.898-3.742-.93-.878 3.528zm-84.606-37.05c-7.566-.84-13.395 3.604-14.162 10.537-.769 6.966 3.997 12.751 11.459 13.578 3.595.398 10.236-.129 10.629-3.678l.778-7.033-8.49-.939-.355 3.219 4.416.49-.276 2.498c-.215 1.938-3.898 2.029-5.849 1.812-5.376-.596-8.189-4.6-7.637-9.593.548-4.962 4.116-7.761 9.285-7.187 2.602.287 5.146 1.402 4.969 3.012l-.19 1.708 4.075.451.355-3.22c.327-2.957-4.661-5.172-9.007-5.655zm37.326 9.41l2.873.559-3.235 16.646-2.874-.559-.619 3.182 10.211 1.984.618-3.182-2.909-.564 3.237-16.648 2.908.564.624-3.21-10.211-1.986-.623 3.214zm96.755 21.427c-1.078-.84-2.26-1.334-4.01-1.857l-10.753-3.227-.941 3.135 2.802.842-4.873 16.242-2.806-.842-.933 3.105 11.284 3.383c1.255.377 2.361.641 3.612.67 2.76.033 5.545-1.582 6.485-4.717.714-2.373.182-4.914-2.197-6.457l.021-.062c2.086-.373 3.687-1.861 4.314-3.953.749-2.5-.132-4.836-2.005-6.262zm-4.442 15.166c-.43 1.426-1.499 2.484-2.833 2.604-.55.039-1.196-.084-1.759-.254l-4.354-1.307 2.004-6.68 4.521 1.357c2.143.642 2.999 2.349 2.421 4.28zm1.926-9.775c-.515 1.709-1.906 2.637-3.754 2.084l-4.125-1.238 1.758-5.857 3.629 1.088c.828.248 1.425.531 1.909.951.783.751.916 1.863.583 2.972zm30.789 4.563l2.86.641-3.703 16.549-2.856-.637-.706 3.162 18.222 4.064 1.337-5.967-3.77-.84-.577 2.58-7.195-1.605 1.443-6.453 7.867 1.758.758-3.391-7.865-1.756 1.406-6.289 6.689 1.492-.562 2.518 3.764.84 1.319-5.904-17.714-3.955-.717 3.193zm58.745 8.769c-1.295-.615-2.741-.953-4.511-1.242l-10.638-1.74-.526 3.23 2.891.473-2.742 16.736-2.891-.473-.522 3.199 10.13 1.658.521-3.199-2.787-.455.931-5.678 2.209.363c1.396.227 1.786.592 2.153 1.559l2.453 6.531c.532 1.459 1.075 1.951 3.084 2.279l2.818.461.527-3.197-.784-.129c-.815-.133-1.267-.373-1.507-1.016l-1.997-5.285c-.337-.928-.991-1.402-.991-1.402l.01-.064c2.938-.457 5.075-2.453 5.607-5.684.533-3.261-.894-5.638-3.438-6.925zm-1.075 6.557c-.407 2.48-2.154 3.566-4.5 3.184l-4.009-.658 1.218-7.438 3.262.535c1.121.184 2.017.463 2.651.869 1.238.736 1.625 2.006 1.378 3.508zm30.647 3.806l3.822.109.099-3.535 4.614.131-.486 16.758-2.928-.084-.093 3.238 10.396.301.096-3.24-2.963-.086.49-16.756 4.646.135-.104 3.537 3.823.109.201-7.008-21.409-.617-.204 7.008zm176.195-157.936c-2.719-3.672-7.055-6.184-12.211-7.082-.729-.162-1.436-.308-2.154-.428-2.309-.39-4.639-.586-6.922-.586-15 0-27.871 8.445-32.789 21.513-.047.128-.148.229-.273.278-.127.051-.27.04-.391-.02-.877-.448-3.027-1.386-5.074-2.302l-.02-.013c-.586-.263-.42-.735-.42-.735l-.072-.022c.275-1.301.465-2.396.582-2.938.865-3.831-2.871-4.709-5.156-4.879h-1.926c-8.299.515-10.461 1.267-10.461 5.173 0 3.208-.316 7.82-.316 7.82-1.512 12.89-6.668 20.995-11.754 26.305-1.119 1.051-1.732 1.511-2.943 2.43-2.773 2.1-5.652 3.729-8.494 4.838-3.914 1.408-7.033 1.653-8.039 1.696l-.344.01c-2.719 0-5.145-.596-7.232-1.762l.379-.313.014-.027c9.418-7.854 12.871-14.724 12.871-14.724 18.535-30.446-5.445-30.446-5.445-30.446v.016c-.279-.013-.566-.016-.857-.005l-.193-.002c-21.396 0-27.23 28.233-27.287 28.518-1.09 7.556-.26 13.886 2.465 18.788.07.123.078.271.027.405s-.158.235-.293.28c-3.184 1.066-6.207 1.543-8.979 1.419-4.752-.212-8.539-2.198-10.955-5.739-3.346-4.896-3.684-12.332-.936-20.4 2.223-6.532 6.318-13.143 11.633-18.871l-.012-.009c5.91-6.922.17-7.32.17-7.32-8.209-.718-12.547 1.312-14.592 2.85l-.074.055-.377.303c-.377.317-.641.586-.754.712l-.074.098c-.203.237-.293.384-.293.384l.012.007c-4.367 5.79-7.699 12.222-9.613 18.627-.041.14-.186.405-.32.461-2.427.993-4.83 1.872-7.129 2.614-.152.051-.324.018-.453-.087-.124-.104-.187-.267-.166-.428 1.829-14.349-6.087-25.903-19.258-28.1-1.708-.286-3.532-.399-5.369-.348-7.361.282-13.086 5.165-13.141 5.214l-.18.1c-6.079 1.764-10.185 4.801-12.562 7.039-4.352 4.499-7.702 9.878-9.672 15.534-2.821 8.102-2.646 16.244.489 22.929.109.231.015.51-.215.628-5.938 3.08-11.823 3.861-16.372 2.152-6.263-2.35-9.907-9.347-9.766-18.73l-.008-.116c.008-.098.744-9.927 5.755-23.187.063-.169.217-.287.396-.307.585-.064 1.17-.142 1.758-.229 8.966-.997 26.194-5.383 41.03-23.599 2.613-3.441 5.054-6.976 7.246-10.493 5.329-8.551 8.81-17.398 9.809-24.91.998-7.512-.61-12.992-4.526-15.429-1.55-.964-3.418-1.454-5.552-1.454-8.217 0-19.45 7.099-29.313 18.525l-.043.045-.214.25-.025.028c-14.177 16.4-23.861 35.945-29.496 49.459-.087.212-.314.33-.537.286-.613-.125-1.229-.25-1.844-.406-4.11-1.034-7.947-2.807-11.399-5.266-.114-.08-.186-.206-.198-.344-.015-.137.033-.274.13-.375 6.747-7.108 12.66-14.697 17.577-22.557.365-.565.722-1.126 1.069-1.679 5.326-8.551 8.812-17.399 9.81-24.91.997-7.513-.611-12.992-4.525-15.429-1.541-.959-3.406-1.445-5.545-1.448l-.131-.02-.097.011c-2.02.039-4.228.496-6.596 1.359-10.388 3.148-20.334 11.037-29.596 23.45-.123.163-.335.23-.525.172-.193-.062-.33-.237-.338-.439-.411-10.852 1.299-22.482 4.955-33.636 4.517-13.791 11.792-26.422 21.037-36.531.149-.16.389-.201.581-.097 14.888 8.06 66.598 34.346 107.392 34.395l.125-.015c.809.021 1.617.033 2.42.033 27.583 0 46.924-12.614 47.036-30.672.135-21.744-28.762-43.352-63.101-47.183-6.881-.768-13.761-.75-20.235.051l-.174-.009-.135-.034c-28.148 3.232-55.312 15.442-74.537 33.505-.156.149-.392.174-.578.059-23.37-14.348-51.632-22.281-81.727-22.938-1.323-.03-2.636-.043-3.951-.043-24.286 0-47.847 4.93-68.133 14.255l-.072.027c-2.726 1.215-5.65 2.692-8.695 4.393-3.716 2.044-7.299 4.243-10.65 6.543-19.447 12.985-38.461 30.797-50.989 43.456-.134.136-.334.18-.513.11-3.112-1.203-6.137-2.556-8.994-4.022-.93-.522-22.701-12.598-46.238-12.598-.973 0-1.949.021-2.9.063-.518.018-1.029.045-1.538.08l-.443.034c-.613.046-1.192.099-1.766.162l-.356.033-.101.025c-10.883 1.337-20.642 6.277-27.476 13.912-6.053 6.762-9.134 15.02-8.679 23.253.88 15.932 14.971 27.928 33.504 28.525l.759.014.173.003.062.004.131-.002.268.004c2.726 0 5.533-.265 8.34-.787 16.864-2.494 33.442-10.701 46.7-23.112.964-.902 1.962-1.887 3.139-3.097l.078-.064.45-.485c.597-.626 1.18-1.253 1.749-1.883 2.072-2.229 4.069-4.367 6-6.423.115-.124.284-.175.452-.139 5.887 1.313 12.009 1.979 18.2 1.979 8.367 0 16.598-1.24 23.798-3.585.214-.068.446.018.559.212.114.192.079.439-.083.593-14.022 13.127-25.861 28.906-35.184 46.896l-.039.061c-2.777 5.81-5.641 11.9-8.509 18.107-.064.136-.188.235-.334.267l-29.362 6.306c-.24.043-.457-.074-.544-.289-4.944-12.255-17.157-19.87-31.871-19.87l-.653.006c-.756.012-1.505.047-2.25.099l-.152-.015c-17.295 1.556-34.472 9.239-48.378 21.643-16.959 15.122-26.425 34.781-25.969 53.931.347 14.556 6.555 27.446 17.48 36.295 9.566 7.746 22.007 11.843 35.974 11.843 19.571 0 39.713-8 55.264-21.947 2.142-1.922 4.252-4.029 6.272-6.264l.102-.084c18.767-20.045 28.639-46.647 28.737-46.915 5.203-14.19 11.324-29.789 11.385-29.945l.074-.125.26-.688.223-.581c.057-.152.188-.264.346-.299l40.135-8.621c.179-.037.363.028.477.169.113.144.136.338.057.501-9.527 20.275-11.107 38.024-4.328 48.698 4.218 6.647 11.495 10.161 21.039 10.161 5.615-.004 11.882-1.254 18.653-3.715.219-.082.467.012.582.216 3.578 6.403 9.594 11.067 16.939 13.138 2.91.82 5.98 1.234 9.125 1.234 16.362 0 32.356-10.91 38.897-26.531.759-1.818 1.383-3.676 1.854-5.521.043-.172.177-.303.347-.348 1.637-.406 3.353-.891 5.252-1.482.151-.045.316-.016.44.083.125.099.192.255.177.412-.989 12.181 4.347 21.998 13.922 25.622 2.674 1.01 5.613 1.521 8.737 1.521 10.857 0 22.869-6.242 31.342-16.293.12-.144.317-.205.494-.152.18.05.315.201.344.387 1.319 8.551 6.301 15.247 13.666 18.373 2.317.982 5.063 1.482 8.155 1.482 6.259 0 13.691-2.059 20.396-5.645.191-.105.432-.062.58.102 2.789 3.097 6.288 5.27 10.396 6.453 2.294.662 4.738.998 7.262.998 13.524 0 27.71-9.531 34.499-23.178.82-1.648 1.534-3.355 2.123-5.074.052-.152.176-.266.328-.307 2.312-.613 4.726-1.371 7.174-2.254.155-.058.33-.029.463.076.129.103.196.266.174.432-1.093 8.975.839 16.992 5.439 22.578 3.83 4.643 9.293 7.344 15.809 7.807 6.32.451 13.389-1.238 20.24-4.838.164-.089.367-.069.514.045 6.719 5.16 15.381 5.361 16.512 5.366l.137-.021.322.002c5.824 0 12.287-1.871 18.693-5.413 14.199-7.847 24.973-23.353 30.973-39.234.268-.508.895-.219.895-.219l.012-.01c1.781.751 3.559 1.495 4.084 1.751.422.206.848.404 1.273.604l.131.06c.193.09.303.293.275.5-.262 1.874-.381 3.767-.348 5.626.086 4.848 1.111 9.633 3.059 14.227l.033.119c1.041 2.163 12.555 26.631 7.623 40.811-1.295 3.723-3.639 6.424-6.973 8.025-.117.053-.254.062-.371.018-.168-.061-.299-.213-.322-.391-.711-5.453-2.385-9.729-3.666-12.357-.412-.907-.9-1.804-1.455-2.677l-.271-.443-.07-.1-.236-.353-.051-.062c-4.453-6.343-11.846-10.607-18.395-10.607-4.059 0-7.516 1.6-9.998 4.626-3.939 4.843-3.836 11.638.281 18.179l.043.088.105.148c.641.99 1.352 1.943 2.127 2.842 5.951 7.117 14.27 11.293 23.418 11.762.158.008.301.09.383.223.082.135.098.299.033.443-4.082 9.493-10.67 16.628-25.02 21.204-.23.07-.475-.035-.578-.25-3.705-7.896-9.672-14.832-17.732-20.618-27.248-20.611-70.88-20.855-71.319-20.855-21.197 0-46.88 3.574-90.92 29.503-.108.062-.234.082-.355.053-44.935-10.843-76.921-20.06-77.24-20.151-56.154-14.79-84.877-15.54-90.065-15.54-.605 0-.907.012-.912.012-51.229 0-75.429 16.1-86.71 29.606-12.186 14.587-12.326 29.323-12.326 29.47l.015.65.013.43-.03.176c-.006.699.024 3.939 1.003 8.516l.108.5c1.938 8.635 7.044 21.117 20.364 31.568 16.117 12.645 40.036 19.057 71.089 19.057.051.002 1.507.111 4.175.111 11.358 0 52.338-2.129 102.752-29.527.068-.037.148-.059.229-.059l.123.018c16.239 4.301 33.733 9.232 51.994 14.66 70.097 20.83 123.119 21.949 123.921 21.963 38.887 0 57.62-15.596 66.489-28.68 9.609-14.186 10.047-28.568 10.047-28.711 0-4.639-.529-9.123-1.574-13.322-.055-.236.07-.477.295-.564 23.582-8.967 27.521-22.712 29.414-30.106.045-.178.189-.316.367-.352 15.586-3.143 26.109-17.957 24.482-34.458-.396-4.004-1.51-7.902-3.322-11.589l-.041-.117c-7.633-15.222-10.057-23.417-10.744-27.614-.027-.161.029-.324.152-.434.121-.109.293-.148.447-.105 6.791 1.881 13.553 2.875 19.559 2.875h.004c2.578 0 5.01-.182 7.236-.544l.709-.12c5.07-.928 8.91-2.775 11.408-5.488 7.022-6.177 8.422-15.168 3.432-21.898zm-254.49 1.456c1.004-2.123 2.067-4.2 3.155-6.176l.055-.096.085-.131c10.903-20.095 33.832-47.021 42.341-47.021 1.373 0 3.064.685 3.351 3.951.416 4.701-3.479 13.933-10.425 24.694-10.736 14.491-24.244 23.523-38.061 25.458l-.066.005c-.15 0-.295-.07-.385-.194-.106-.144-.124-.331-.05-.49zm-12.679-124.19c16.86-15.444 43.184-25.19 70.419-26.069 1.365-.045 2.74-.066 4.084-.066 25.515 0 46.34 7.916 57.137 21.721 3.834 5.66 3.113 10.087 3 10.662-.041 19.463-22.951 20.451-27.547 20.451-.654 0-1.018-.019-1.018-.019-48.067 0-93.252-19.821-105.957-25.895-.143-.068-.244-.205-.268-.362-.023-.156.032-.317.15-.423zm-241.725 52.442l-1.098 1.155c-.313.313-.628.625-.956.933-13.942 13.051-31.976 20.881-49.483 21.482h-.015l-.129-.018-.331.005-.153-.002c-13.105-.401-23.036-7.898-23.613-17.827-.296-5.093 1.817-10.312 5.953-14.696 5.999-6.358 15.497-10.154 25.407-10.154.658 0 1.317.016 1.986.049.987.046 1.964.133 2.988.266 5.696 1.024 15.975 4.43 32.768 14.854l.08.036c1.982 1.12 4.085 2.153 6.431 3.153.144.06.247.187.279.339.034.152-.008.309-.114.425zm-22.878 81.968c.127-.032.257-.012.367.055.109.065.188.173.217.298 1.078 4.547.62 9.647-1.286 14.359-3.752 9.273-12.843 16.205-22.106 16.859-.72.051-1.375.074-2.009.074-3.391 0-6.037-.73-8.323-2.3-.737-.56-4.307-3.511-3.987-7.861.288-3.942 3.686-7.733 10.097-11.271.139-.071 12.843-6.588 27.03-10.213zm30.34-5.812c-3.942 8.66-6.422 14.31-6.445 14.364-17.895 39.07-28.916 49.145-29.377 49.555l-.032.025-.111.125c-.311.344-.623.689-.944 1.029-12.835 13.559-30.467 21.655-47.166 21.655-9.82 0-18.617-2.902-25.436-8.395-8.401-6.764-12.988-16.74-12.919-28.093.1-16.343 9.487-33.425 25.113-45.695 11.844-9.301 25.693-14.423 38.996-14.423 7.077 0 13.821 1.501 19.499 4.345l.047.024c2.195 1.065 4.08 2.567 5.602 4.467.104.126.133.296.08.45-.051.155-.177.272-.336.312-7.642 1.913-21.964 5.999-32.018 11.886l-.475.276-.047.033c-11.05 6.609-16.486 17.108-12.927 24.964 2.411 5.325 8.634 8.503 16.646 8.503 4.847 0 9.991-1.168 14.873-3.378 1.681-.762 3.326-1.652 4.893-2.646l.132-.059c10.167-6.363 16.897-16.504 18.024-27.18.253-2.407.223-4.84-.094-7.232-.031-.248.13-.478.375-.531l23.509-5.05c.177-.035.359.026.474.168.113.143.138.337.064.501zm205.948-30.801c11.013-15.336 25.564-30.861 32.066-30.861 1.37 0 3.067.687 3.352 3.951.701 7.965-10.694 27.921-24.885 43.575-.087.101-.214.157-.348.159h-.006c-.131 0-.254-.053-.346-.146-4.177-4.323-7.506-9.786-9.891-16.232-.055-.151-.032-.316.058-.446zm4.653 22.051c.087.091.137.214.131.342-.001.127-.053.25-.146.336l-.247.236-.688.653c-7.062 6.005-14.691 11.246-22.704 15.595-.069.039-.147.057-.227.057-.108 0-.215-.035-.299-.105-.152-.12-.212-.321-.16-.506 2.244-7.699 5.362-15.19 9.275-22.27l.048-.098.089-.131c1.351-2.486 2.931-5.152 4.691-7.921.093-.147.266-.247.434-.221.172.01.323.114.401.27 2.57 5.321 5.732 9.953 9.402 13.763zm-63.326 46.619c-10.157 10.577-23.968 12.995-32.333 5.847-.573-.49-1.092-1.024-1.578-1.578-.545-.756-1.054-1.541-1.487-2.389-2.812-5.512-3.006-12.527-.534-19.249.883-2.397 2.083-4.717 3.568-6.891.101-.15.283-.227.455-.205.179.023.331.146.39.314 1.099 3.082 6.311 13.131 27.264 13.131 2.993 0 6.23-.207 9.618-.613.628-.062 1.311-.145 2.025-.236-1.443 4.141-3.904 8.243-7.388 11.869zm-2.426-16.931c-17.166 0-17.52-10.9-17.521-11.011 0-6.751 6.164-9.148 10.682-9.619 1.485-.073 17.96-.435 17.749 19.463-4.006.763-7.684 1.167-10.91 1.167zm27.537-7.838l-.021.087c-.236.663-.443 1.322-.64 1.983-.045.143-.153.258-.294.309-1.762.646-3.652 1.272-5.788 1.912-.146.045-.306.016-.425-.078-.124-.092-.194-.237-.19-.393.399-14.879-9.271-26.542-24.062-29.025-1.834-.308-3.763-.463-5.729-.463h-.181c-8.072.108-14.191 4.801-14.251 4.848l-.181.088c-6.733 1.635-11.273 4.622-13.898 6.839-4.899 4.566-8.682 10.139-10.924 16.104-2.274 6.048-2.892 12.343-1.788 18.201.045.241-.101.48-.337.548-1.752.512-3.422.886-4.966 1.11-1.377.2-2.705.303-3.947.303-5.765 0-10.053-2.21-12.398-6.396-5.191-9.262-.685-27.225 12.056-48.052.071-.118.191-.198.327-.222 5.883-1 11.798-2.246 17.583-3.7 38.093-9.588 69.302-27.508 79.504-45.653 3.178-5.654 4.044-10.94 2.571-15.708-.502-1.623-1.269-3.166-2.284-4.588-.811-1.048-1.719-2.016-2.694-2.864-4.336-3.772-10.126-5.684-17.211-5.684-25.381 0-60.611 24.136-85.672 58.694-4.098 5.653-7.758 11.337-10.875 16.897-.067.12-.182.206-.316.233l-41.22 8.855c-.177.036-.357-.026-.469-.163-.114-.139-.141-.328-.071-.492 14.009-32.809 35.179-60.43 61.221-79.881l.072-.068c.683-.52 1.036-1.028 1.02-1.472-.02-.534-.569-.896-.575-.899-.987-.73-2.096-1.091-3.324-1.091-1.333 0-2.553.424-3.342.78-5.558 2.966-11.087 6.436-16.408 10.3l-.105.058c-2.683 1.057-3.481 1.371-3.752 1.466l.004.008c-7.158 2.751-15.174 4.146-23.827 4.146-6.431.002-13.06-.777-19.702-2.311-.168-.037-.301-.163-.351-.328-.047-.166-.005-.343.114-.467 13.878-14.476 23.258-23.561 28.68-28.635l.088-.062.369-.354.297-.285c2.16-2.011 3.7-3.39 4.612-4.194 22.932-19.578 56.551-30.803 92.243-30.803 1.255 0 2.515.014 3.78.04 27.799.607 54.062 7.746 75.949 20.646.126.075.212.204.232.348.021.145-.027.29-.127.396-10.423 10.865-18.318 25.09-22.837 41.137-4.188 14.87-5.079 30.061-2.577 43.929.021.114 0 .232-.06.33-6.342 10.606-12.175 23.213-17.337 37.472-3.598 9.254-5.402 15.676-5.566 16.264zm-82.123-41.004c2.664-3.824 5.581-7.723 8.672-11.586 19.896-24.854 43.22-43.009 60.865-47.38.508-.09 1.779-.281 3.323-.281 5.965 0 9.286 2.698 9.345 7.593.083 18.488-31.727 39.917-75.637 50.958-1.84.463-3.825.933-6.07 1.438l-.104.012c-.157 0-.307-.079-.397-.212-.111-.165-.108-.379.003-.542zm141.206 31.323c-2.897 7.736-4.37 12.973-4.52 13.51l-.02.088c-1.076 3.037-1.779 6.11-2.09 9.134-.008.089-.041.175-.096.245-7.867 10.132-18.047 16.428-26.574 16.428-1.865 0-3.625-.307-5.223-.906-6.264-2.35-9.908-9.348-9.767-18.729l-.006-.119c.006-.092.164-2.25.856-5.934.026-.15.122-.276.259-.342 10.714-5.276 20.938-12.444 30.396-21.306.173-.16.437-.173.619-.029 4.219 3.259 8.88 5.574 13.85 6.876.654.172 1.31.311 1.962.447.137.028.254.114.321.236.071.123.08.27.033.401zm75.449 35.657c-10.374 10.927-22.158 11.067-27.455 6.423-1.192-1.044-2.113-2.322-2.815-3.75-2.197-4.841-2.19-11.029.051-17.111.818-2.234 1.917-4.406 3.257-6.453.102-.154.276-.234.468-.212.187.028.335.157.391.334.837 2.768 4.94 11.796 22.553 11.796 2.689 0 5.613-.21 8.695-.625.484-.056.976-.133 1.463-.201-1.509 3.399-3.727 6.763-6.608 9.799zm8.45-15.611c-3.611.707-6.913 1.07-9.801 1.07-14.856 0-15.059-9.456-15.059-9.551 0-8.454 8.669-9.782 11.349-9.99 0 0 16.097.328 13.511 18.471zm66.873 13.054c-.785.612-1.51 1.153-2.15 1.618-.145-.029-.264-.121-.33-.25-.324-.631-.607-1.299-.848-1.988-2.754-7.824-.324-17.996 6.666-27.909.732-.949 1.625-1.972 2.615-2.858.447-.346 6.18-4.695 9.459.392 1.34 2.311 1.111 5.746-.674 10.207l-.027.118c-.219.544-.451 1.093-.691 1.647-3.124 7.049-8.065 13.717-14.02 19.023zm-133.321 69.928c1.662-.83 3.315-1.627 4.964-2.408 11.638-5.353 42.226-17.784 75.423-17.784 0 0 50.991 1.201 70.843 32.976.07.154.1.41-.328.525-10.289 1.723-22.348 2.604-35.879 2.604-42.991 0-87.735-8.848-88.183-8.938-8.609-1.896-17.601-3.941-26.735-6.08-.195-.047-.341-.211-.363-.41-.026-.2.078-.395.258-.485zm145.952 60.055c-10.951 11.381-28.543 17.154-52.288 17.154-.004 0-.619.029-1.879.029-9.787 0-48.501-1.773-135.817-24.629-8.148-2.328-16.186-4.574-23.911-6.684l-17.375-4.656c-68.887-18.07-95.099-20.074-103.249-20.088-16.216-.43-24.886 5.949-28.667 9.865-.259.318-1.821 2.357-.593 3.586 0 0 .822.992 6.329-.557.669-.217 1.332-.416 1.983-.602l.028-.01c8.08-2.301 14.611-2.41 15.731-2.41l.254.002c-.008 0 .345-.02 1.077-.02 6.231 0 31.447 1.23 94.322 17.039.196.049.341.219.36.42.019.203-.093.395-.278.48-49.072 22.471-87.714 22.73-89.335 22.73-30.943 0-53.813-6.922-67.992-20.568-11.417-10.99-13.72-23.297-14.181-28.078 1.564-48.179 77.119-49.567 85.729-49.567l.981.006c34.102 0 84.641 13.871 85.147 14.01 25.208 6.962 47.939 13.026 67.598 18.036l14.704 3.691c29.695 7.324 40.126 9.059 40.229 9.076 31.736 5.449 59.899 8.213 83.718 8.213 17.902 0 33.629-1.561 46.744-4.641.252-.064.504.096.572.344.922 3.475 1.393 7.164 1.393 10.971.006.13.424 14.641-11.334 26.858zm46.797-80.993c-.078.104-.193.168-.32.186-1.496.201-3.07.303-4.68.303l-.229-.004c-9.391-.037-15.057-8.057-15.395-8.543-2.373-3.684-2.656-7.226-.668-9.532 1.1-1.262 2.639-1.926 4.445-1.926 3.482 0 7.873 2.418 11.195 6.159 3.172 4.031 5.098 8.398 5.742 13.004.019.124-.014.253-.09.353zm34.681-69.369c-4.994 0-10.906-1.064-17.09-3.077-.24-.079-.377-.332-.314-.577 2.291-8.688 10.473-14.842 19.896-14.964h.018c6.893.149 12.295 4.17 12.295 9.154l.006.203c-.588 5.906-5.987 9.261-14.811 9.261z"/></svg>