<svg xmlns="http://www.w3.org/2000/svg" width="100" height="175"><polyline stroke="#B3B3B3" stroke-width="2" stroke-miterlimit="10" points="1.029,0.707 11.867,11.544 22.703,0.708" fill="none"/><path opacity=".5" fill="#ECE4D8" d="M89.017 10.983c-7.083-7.082-16.502-10.983-26.517-10.983s-19.434 3.9-26.518 10.982c-7.082 7.084-10.982 16.503-10.982 26.518s3.9 19.435 10.982 26.518c7.084 7.082 16.502 10.982 26.518 10.982s19.435-3.9 26.518-10.982c7.081-7.083 10.982-16.502 10.982-26.518s-3.901-19.434-10.983-26.517zm-26.517 61.864c-19.49 0-35.347-15.857-35.347-35.347s15.856-35.346 35.347-35.346 35.346 15.857 35.346 35.346-15.856 35.347-35.346 35.347zm27.495-50.512c-.088-.289-.227-.56-.407-.813-.143-.187-.304-.359-.476-.509-.77-.67-1.798-1.011-3.058-1.011-4.5 0-10.752 4.285-15.201 10.418-.729 1.004-1.377 2.011-1.931 2.996l-.055.043-7.314 1.571-.085-.029-.013-.088c2.486-5.823 6.244-10.723 10.866-14.176l.015-.011c.116-.092.183-.183.179-.264-.004-.091-.103-.157-.103-.157-.176-.132-.373-.194-.589-.194-.238 0-.454.073-.594.139-.985.524-1.97 1.143-2.911 1.827l-.019.008-.666.264c-1.271.49-2.693.736-4.229.736-1.143 0-2.318-.136-3.497-.41l-.2-.062c2.421-2.46 7.979-7.434 14.715-9.02 0 0 .655-.113.735-.597 0 0 .1-.619-.988-.439-7.006 1.165-13.441 6.544-16.466 9.43l-.596-.227c-.377-.158-.749-.326-1.104-.509-.165-.092-4.028-2.234-8.205-2.234l-.515.011-.272.015-.079.004-.313.029-.063.008-.019.003c-1.931.238-3.664 1.113-4.877 2.468-1.073 1.201-1.62 2.669-1.537 4.127.153 2.827 2.654 4.958 5.944 5.064h.165l.012.003h.069c.485 0 .983-.047 1.481-.139 2.992-.443 5.935-1.9 8.287-4.102l.557-.549.015-.014.079-.084.311-.333 1.064-1.143.081-.021c1.045.23 2.131.351 3.229.351 1.484 0 2.944-.223 4.222-.637l.102.037-.015.106c-2.488 2.329-4.591 5.13-6.246 8.324l-.006.007c-.492 1.033-1.001 2.113-1.51 3.215l-.059.048-5.211 1.117-.098-.051c-.878-2.176-3.043-3.523-5.656-3.523h-.115l-.398.015h-.028c-3.068.274-6.118 1.637-8.586 3.841-3.009 2.684-4.689 6.17-4.606 9.569.06 2.586 1.162 4.871 3.102 6.442 1.697 1.373 3.905 2.102 6.383 2.102 3.474 0 7.048-1.421 9.808-3.896.38-.34.756-.714 1.114-1.109l.017-.015c3.331-3.556 5.084-8.276 5.101-8.327.924-2.516 2.01-5.285 2.021-5.314l.013-.022.045-.121.04-.103.062-.055 7.124-1.527.381-.019c-.853 2.417-2.164 7.973 2.164 11.367-.439.941-1.076 2.336-1.98 4.373-2.197 4.933-7.464 11.792-17.751 11.832 0 0-1.014 0-1.415.495 0 0-.511.71 1.002.776 4.073.136 14.978-.816 20.683-13.945 0 0 .407-1.015 1.194-2.45l.527.246s5.574 2.542 9.719-2.095c0 0 3.161-3.582.425-6.541 0 0-5.299-5.186-11.385 5.255-3.41-3.549.073-9.265.718-10.254 1.044-.176 2.088-.396 3.113-.656 6.759-1.699 12.297-4.882 14.106-8.101.566-1.002.716-1.939.457-2.786zm-34.245 1.641l-.17.169c-.214.197-.441.384-.666.571l-.09.088h-.013c-2.352 1.911-5.217 3.054-8.013 3.153h-.002l-.023-.003h-.086c-2.326-.073-4.087-1.403-4.19-3.165-.053-.904.323-1.831 1.058-2.607 1.062-1.128 2.749-1.801 4.507-1.801l.354.007c.175.007.349.026.531.048.851.154 2.289.615 4.499 1.86.695.483 1.802 1.157 2.44 1.538l-.136.142zm-3.865 14.345l.063.007.039.055c.192.806.109 1.71-.228 2.548-.666 1.645-2.279 2.875-3.924 2.989l-.357.014c-.603 0-1.07-.128-1.478-.41-.128-.096-.763-.619-.706-1.392.051-.7.655-1.374 1.79-2 .027-.013 2.283-1.171 4.801-1.811zm5.384-1.033c-.7 1.535-1.14 2.538-1.146 2.549-3.175 6.933-5.131 8.723-5.213 8.792l-.006.008-.018.021-.168.183c-2.278 2.406-5.407 3.842-8.371 3.842-1.742 0-3.305-.516-4.515-1.491-1.491-1.201-2.304-2.97-2.293-4.984.019-2.9 1.685-5.933 4.457-8.111 2.103-1.648 4.562-2.56 6.922-2.56 1.256 0 2.453.267 3.461.772l.007.007c.39.187.726.455.994.792l.015.08-.061.055c-1.356.337-3.898 1.062-5.682 2.106l-.085.051-.009.008c-1.961 1.172-2.924 3.036-2.294 4.427.429.945 1.533 1.509 2.955 1.509.86 0 1.772-.205 2.639-.597.298-.135.591-.293.87-.468l.021-.011c1.806-1.132 2.999-2.93 3.201-4.823.044-.429.038-.861-.019-1.286-.005-.044.023-.084.068-.092l4.173-.901.082.033.015.089zm19.362 4.116l.065-.066.125-.117.004-.004c1.385-1.267 3.175-1.571 4.058-.666.912.934.517 2.797-.887 4.167l-.095.087c-2.326 2.406-5.915.916-5.915.916-.204-.088-.402-.184-.589-.282.854-1.317 1.935-2.76 3.234-4.035zm-2.178-9.192c-.326.084-.678.165-1.076.256h-.019l-.069-.037v-.099c.472-.677.988-1.37 1.538-2.054 3.53-4.409 7.672-7.632 10.803-8.408.088-.015.315-.051.589-.051 1.06 0 1.648.479 1.66 1.348.01 3.281-5.633 7.086-13.426 9.045z"/><path fill="#96C8D2" d="M39.302 126.717c-.258 2.453-1.805 4.79-4.136 6.25l-.084.033c-.292.201-.67.404-1.066.586-1.124.506-2.307.773-3.422.773-1.889 0-3.362-.764-3.941-2.043-.847-1.871.408-4.348 2.982-5.889l.116-.068c2.179-1.275 5.224-2.172 6.985-2.621-.288-.312-.628-.566-1.015-.752l-.061-.033c-1.213-.6-2.665-.92-4.19-.92-2.907 0-5.942 1.125-8.543 3.164-3.426 2.693-5.484 6.43-5.505 9.997-.015 2.454.975 4.61 2.788 6.07 1.476 1.188 3.384 1.817 5.517 1.817 3.658-.002 7.522-1.777 10.338-4.752l.263-.283c.096-.086 2.51-2.286 6.486-10.969.076-.172.566-1.283 1.32-2.943l-4.836 1.043c.056.519.058 1.034.004 1.54zm-9.623 3.371c-.062.867.703 1.467.79 1.531.547.377 1.191.518 2.136.45 1.975-.14 3.915-1.622 4.717-3.603.386-.957.493-1.984.306-2.912-2.887.76-5.529 2.071-5.824 2.221-1.351.747-2.066 1.525-2.125 2.313zm4.294-27.041c-.209-.027-.421-.047-.634-.056l-.431-.011c-2.145 0-4.195.817-5.484 2.187-.875.925-1.322 2.022-1.26 3.092.122 2.081 2.235 3.654 5.023 3.738h.101l.034.253-.01-.25c3.447-.116 6.97-1.503 9.919-3.904l.256-.216c.237-.196.474-.391.698-.602l.156-.152c-.91-.549-2.051-1.255-2.81-1.782-2.806-1.577-4.573-2.121-5.558-2.297zm46.892 1.745c-.313 0-.572.039-.699.061-3.868.959-9.019 4.975-13.422 10.479-.611.764-1.186 1.524-1.711 2.266.343-.08.67-.158.981-.238 9.685-2.436 16.7-7.113 16.683-11.123-.013-1.194-1.004-1.445-1.832-1.445zm-30.865-29.792c-27.57 0-50 22.43-50 50 0 27.571 22.43 50 50 50s50-22.429 50-50c0-27.57-22.43-50-50-50zm35.258 33.813c-2.308 4.104-9.331 8.15-17.892 10.305-1.253.316-2.538.588-3.82.81-.973 1.513-4.767 8.019-1.098 12.235 3.957-6.646 7.664-8.054 10.091-8.054 2.679 0 4.366 1.624 4.437 1.692 3.562 3.85-.479 8.518-.521 8.564-2.101 2.35-4.836 3.592-7.913 3.592-2.597 0-4.512-.861-4.592-.896l-.453-.207c-.896 1.659-1.368 2.832-1.373 2.844-6.942 15.975-20.085 17.699-25.413 17.699l-.828-.014c-.857-.037-1.36-.238-1.54-.611-.147-.304-.016-.621.086-.762.581-.718 1.926-.725 1.983-.725 14.036-.057 20.115-10.316 22.078-14.725.932-2.098 1.743-3.887 2.412-5.325-5.218-4.241-3.791-11.01-2.769-14.09l-.113.005-8.832 1.901-.112.275-.066.172c-.968 2.488-1.794 4.664-2.456 6.467-.021.058-2.205 6.001-6.462 10.55l-.056.045c-.423.478-.9.955-1.382 1.387-3.516 3.15-8.07 4.959-12.495 4.959-3.172 0-6.001-.933-8.182-2.696-2.496-2.023-3.914-4.968-3.992-8.286-.104-4.346 2.037-8.801 5.875-12.223 3.145-2.805 7.028-4.541 10.937-4.891l.555-.021h.15c3.343 0 6.127 1.714 7.296 4.48l6.358-1.371c.633-1.367 1.261-2.702 1.871-3.975l.037-.067c1.995-3.839 4.497-7.223 7.442-10.069-2.652.758-5.934.849-8.844.211l-1.282 1.372-.391.423-.145.146c-.24.251-.466.472-.685.677-2.993 2.804-6.739 4.657-10.55 5.22-.63.119-1.272.18-1.899.18l-.062-.001-.032-.253-.031.252-.196-.003c-4.264-.139-7.509-2.915-7.711-6.603-.104-1.905.606-3.812 2-5.369 1.564-1.748 3.797-2.877 6.286-3.183l.108-.014.4-.036.1-.007.354-.02.653-.015c5.352 0 10.232 2.729 10.438 2.844.395.201.842.408 1.361.625l.59.227c4.045-3.839 12.013-10.363 20.717-11.812.725-.12 1.117-.012 1.361.272.212.248.175.535.17.566-.128.775-1.09.953-1.132.961-7.999 1.883-14.64 7.545-18.057 10.961 1.389.311 2.795.47 4.167.47 1.838 0 3.539-.284 5.063-.847v-.008l.172-.061.822-.32c1.159-.848 2.4-1.627 3.656-2.299.21-.096.517-.202.864-.202.326 0 .626.099.892.29.03.021.221.16.23.393.005.188-.104.368-.324.539-5.727 4.278-10.379 10.312-13.487 17.48l8.86-1.908c.689-1.227 1.502-2.486 2.408-3.734 5.636-7.771 13.577-13.197 19.312-13.197 1.645 0 2.992.447 4.005 1.33.226.192.439.42.635.674.248.349.432.717.551 1.102.348 1.135.148 2.38-.595 3.703zm-16.653 26.092c1.69 0 3.084-.555 4.143-1.646l.122-.115c1.66-1.622 2.158-3.812 1.112-4.885-.371-.381-.903-.582-1.54-.582-1.034 0-2.235.535-3.214 1.431l-.119.112-.239-.118.179.177-.058.057c-1.362 1.335-2.665 2.948-3.876 4.797l.478.219c.011.004 1.357.553 3.012.553z"/></svg>