<?xml version="1.0" encoding="utf-8"?>
<!-- Generator: Adobe Illustrator 16.0.0, SVG Export Plug-In . SVG Version: 6.00 Build 0)  -->
<!DOCTYPE svg PUBLIC "-//W3C//DTD SVG 1.1//EN" "http://www.w3.org/Graphics/SVG/1.1/DTD/svg11.dtd">
<svg version="1.1" id="Layer_1" xmlns="http://www.w3.org/2000/svg" xmlns:xlink="http://www.w3.org/1999/xlink" x="0px" y="0px"
	 width="100px" height="176px" viewBox="0 0 100 176" enable-background="new 0 0 100 176" xml:space="preserve">
<rect x="0.029" y="-0.293" display="none" fill-rule="evenodd" clip-rule="evenodd" fill="#FF00FF" width="72" height="77"/>
<polyline fill="none" stroke="#B3B3B3" stroke-width="2" stroke-miterlimit="10" points="1.029,0.707 11.867,11.544 22.703,0.708 
	"/>
<path opacity="0.5" fill="#ECE4D8" d="M89.017,10.983C81.934,3.901,72.515,0,62.5,0s-19.434,3.9-26.518,10.982
	C28.9,18.066,25,27.485,25,37.5s3.9,19.435,10.982,26.518C43.066,71.1,52.484,75,62.5,75s19.435-3.9,26.518-10.982
	C96.099,56.935,100,47.516,100,37.5S96.099,18.066,89.017,10.983z M62.5,72.847c-19.49,0-35.347-15.857-35.347-35.347
	S43.009,2.154,62.5,2.154S97.846,18.011,97.846,37.5S81.99,72.847,62.5,72.847z M89.995,22.335c-0.088-0.289-0.227-0.56-0.407-0.813
	c-0.143-0.187-0.304-0.359-0.476-0.509c-0.77-0.67-1.798-1.011-3.058-1.011c-4.5,0-10.752,4.285-15.201,10.418
	c-0.729,1.004-1.377,2.011-1.931,2.996c-0.011,0.022-0.032,0.036-0.055,0.043l-7.314,1.571c-0.031,0.007-0.064-0.003-0.085-0.029
	c-0.02-0.025-0.025-0.059-0.013-0.088c2.486-5.823,6.244-10.723,10.866-14.176c0.004-0.004,0.007-0.007,0.015-0.011
	c0.116-0.092,0.183-0.183,0.179-0.264c-0.004-0.091-0.103-0.157-0.103-0.157c-0.176-0.132-0.373-0.194-0.589-0.194
	c-0.238,0-0.454,0.073-0.594,0.139c-0.985,0.524-1.97,1.143-2.911,1.827c-0.008,0.004-0.011,0.008-0.019,0.008
	c-0.477,0.19-0.619,0.245-0.666,0.264l0,0c-1.271,0.49-2.693,0.736-4.229,0.736c-1.143,0-2.318-0.136-3.497-0.41l-0.2-0.062
	c2.421-2.46,7.979-7.434,14.715-9.02c0,0,0.655-0.113,0.735-0.597c0,0,0.1-0.619-0.988-0.439c-7.006,1.165-13.441,6.544-16.466,9.43
	c-0.34-0.125-0.596-0.227-0.596-0.227c-0.377-0.158-0.749-0.326-1.104-0.509c-0.165-0.092-4.028-2.234-8.205-2.234
	c-0.175,0-0.346,0.003-0.515,0.011c-0.092,0.003-0.184,0.007-0.272,0.015l-0.079,0.004c-0.11,0.011-0.212,0.018-0.313,0.029
	l-0.063,0.008c-0.006,0-0.013,0.003-0.019,0.003c-1.931,0.238-3.664,1.113-4.877,2.468c-1.073,1.201-1.62,2.669-1.537,4.127
	c0.153,2.827,2.654,4.958,5.944,5.064c0.045,0,0.09,0,0.134,0h0.031c0.004,0,0.006,0.003,0.012,0.003h0.023h0.046
	c0.485,0,0.983-0.047,1.481-0.139c2.992-0.443,5.935-1.9,8.287-4.102c0.17-0.161,0.349-0.337,0.557-0.549
	c0.006-0.007,0.01-0.011,0.015-0.014l0.079-0.084c0.105-0.11,0.211-0.223,0.311-0.333c0.369-0.396,0.724-0.777,1.064-1.143
	c0.021-0.021,0.051-0.029,0.081-0.021c1.045,0.23,2.131,0.351,3.229,0.351c1.484,0,2.944-0.223,4.222-0.637
	c0.039-0.011,0.081,0.004,0.102,0.037c0.021,0.033,0.015,0.077-0.015,0.106c-2.488,2.329-4.591,5.13-6.246,8.324
	c-0.002,0-0.004,0.004-0.006,0.007c-0.492,1.033-1.001,2.113-1.51,3.215c-0.012,0.022-0.033,0.041-0.059,0.048l-5.211,1.117
	c-0.043,0.007-0.081-0.011-0.098-0.051c-0.878-2.176-3.043-3.523-5.656-3.523h-0.115c-0.134,0-0.268,0.008-0.398,0.015
	c-0.01,0.003-0.019,0-0.028,0c-3.068,0.274-6.118,1.637-8.586,3.841c-3.009,2.684-4.689,6.17-4.606,9.569
	c0.06,2.586,1.162,4.871,3.102,6.442c1.697,1.373,3.905,2.102,6.383,2.102c3.474,0,7.048-1.421,9.808-3.896
	c0.38-0.34,0.756-0.714,1.114-1.109c0.004-0.008,0.011-0.011,0.017-0.015c3.331-3.556,5.084-8.276,5.101-8.327
	c0.924-2.516,2.01-5.285,2.021-5.314c0.003-0.007,0.007-0.015,0.013-0.022c0.015-0.041,0.03-0.081,0.045-0.121l0.04-0.103
	c0.01-0.03,0.033-0.048,0.062-0.055l7.124-1.527l0.381-0.019c-0.853,2.417-2.164,7.973,2.164,11.367
	c-0.439,0.941-1.076,2.336-1.98,4.373c-2.197,4.933-7.464,11.792-17.751,11.832l0,0c0,0-1.014,0-1.415,0.495
	c0,0-0.511,0.71,1.002,0.776c4.073,0.136,14.978-0.816,20.683-13.945c0,0,0.407-1.015,1.194-2.45
	c0.172,0.081,0.344,0.165,0.527,0.246c0,0,5.574,2.542,9.719-2.095c0,0,3.161-3.582,0.425-6.541c0,0-5.299-5.186-11.385,5.255
	c-3.41-3.549,0.073-9.265,0.718-10.254c1.044-0.176,2.088-0.396,3.113-0.656c6.759-1.699,12.297-4.882,14.106-8.101
	C90.104,24.119,90.254,23.182,89.995,22.335z M55.75,23.976c-0.056,0.059-0.11,0.11-0.17,0.169
	c-0.214,0.197-0.441,0.384-0.666,0.571c-0.056,0.055-0.09,0.088-0.09,0.088h-0.013c-2.352,1.911-5.217,3.054-8.013,3.153h-0.002
	c-0.009,0-0.017-0.003-0.023-0.003h-0.059h-0.027c-2.326-0.073-4.087-1.403-4.19-3.165c-0.053-0.904,0.323-1.831,1.058-2.607
	c1.062-1.128,2.749-1.801,4.507-1.801c0.118,0,0.235,0.003,0.354,0.007c0.175,0.007,0.349,0.026,0.531,0.048
	c0.851,0.154,2.289,0.615,4.499,1.86c0.695,0.483,1.802,1.157,2.44,1.538L55.75,23.976z M51.885,38.321
	c0.021-0.007,0.045-0.003,0.063,0.007c0.021,0.011,0.033,0.033,0.039,0.055c0.192,0.806,0.109,1.71-0.228,2.548
	c-0.666,1.645-2.279,2.875-3.924,2.989c-0.126,0.011-0.243,0.014-0.357,0.014c-0.603,0-1.07-0.128-1.478-0.41
	c-0.128-0.096-0.763-0.619-0.706-1.392c0.051-0.7,0.655-1.374,1.79-2C47.111,40.119,49.367,38.961,51.885,38.321z M57.269,37.288
	c-0.7,1.535-1.14,2.538-1.146,2.549c-3.175,6.933-5.131,8.723-5.213,8.792c0,0.004-0.002,0.004-0.006,0.008l-0.018,0.021
	c-0.058,0.059-0.112,0.121-0.168,0.183c-2.278,2.406-5.407,3.842-8.371,3.842c-1.742,0-3.305-0.516-4.515-1.491
	c-1.491-1.201-2.304-2.97-2.293-4.984c0.019-2.9,1.685-5.933,4.457-8.111c2.103-1.648,4.562-2.56,6.922-2.56
	c1.256,0,2.453,0.267,3.461,0.772c0.002,0.004,0.005,0.004,0.007,0.007c0.39,0.187,0.726,0.455,0.994,0.792
	c0.019,0.021,0.026,0.051,0.015,0.08c-0.009,0.026-0.033,0.048-0.061,0.055c-1.356,0.337-3.898,1.062-5.682,2.106l-0.085,0.051
	c-0.001,0.004-0.005,0.004-0.009,0.008c-1.961,1.172-2.924,3.036-2.294,4.427c0.429,0.945,1.533,1.509,2.955,1.509
	c0.86,0,1.772-0.205,2.639-0.597c0.298-0.135,0.591-0.293,0.87-0.468c0.007-0.008,0.014-0.011,0.021-0.011
	c1.806-1.132,2.999-2.93,3.201-4.823c0.044-0.429,0.038-0.861-0.019-1.286c-0.005-0.044,0.023-0.084,0.068-0.092l4.173-0.901
	c0.028-0.003,0.062,0.008,0.082,0.033C57.277,37.226,57.281,37.259,57.269,37.288z M76.631,41.404
	c0.022-0.022,0.044-0.044,0.065-0.066c0.041-0.041,0.085-0.081,0.125-0.117l0.004-0.004c1.385-1.267,3.175-1.571,4.058-0.666
	c0.912,0.934,0.517,2.797-0.887,4.167c-0.028,0.029-0.062,0.058-0.095,0.087l0,0c-2.326,2.406-5.915,0.916-5.915,0.916
	c-0.204-0.088-0.402-0.184-0.589-0.282C74.251,44.122,75.332,42.679,76.631,41.404z M74.453,32.212
	c-0.326,0.084-0.678,0.165-1.076,0.256c-0.008,0-0.012,0-0.019,0c-0.03,0-0.056-0.011-0.069-0.037c-0.022-0.029-0.022-0.066,0-0.099
	c0.472-0.677,0.988-1.37,1.538-2.054c3.53-4.409,7.672-7.632,10.803-8.408c0.088-0.015,0.315-0.051,0.589-0.051
	c1.06,0,1.648,0.479,1.66,1.348C87.889,26.448,82.246,30.253,74.453,32.212z"/>
<path fill="#96C8D2" d="M39.302,127.717c-0.258,2.453-1.805,4.79-4.136,6.25L35.082,134c-0.292,0.201-0.67,0.404-1.066,0.586
	c-1.124,0.506-2.307,0.773-3.422,0.773c-1.889,0-3.362-0.764-3.941-2.043c-0.847-1.871,0.408-4.348,2.982-5.889l0.116-0.068
	c2.179-1.275,5.224-2.172,6.985-2.621c-0.288-0.312-0.628-0.566-1.015-0.752l-0.061-0.033c-1.213-0.6-2.665-0.92-4.19-0.92
	c-2.907,0-5.942,1.125-8.543,3.164c-3.426,2.693-5.484,6.43-5.505,9.997c-0.015,2.454,0.975,4.61,2.788,6.07
	c1.476,1.188,3.384,1.817,5.517,1.817c3.658-0.002,7.522-1.777,10.338-4.752l0.263-0.283c0.096-0.086,2.51-2.286,6.486-10.969
	c0.076-0.172,0.566-1.283,1.32-2.943l-4.836,1.043C39.354,126.696,39.356,127.211,39.302,127.717z M29.679,131.088
	c-0.062,0.867,0.703,1.467,0.79,1.531c0.547,0.377,1.191,0.518,2.136,0.45c1.975-0.14,3.915-1.622,4.717-3.603
	c0.386-0.957,0.493-1.984,0.306-2.912c-2.887,0.76-5.529,2.071-5.824,2.221C30.453,129.522,29.738,130.3,29.679,131.088z
	 M33.973,104.047c-0.209-0.027-0.421-0.047-0.634-0.056c-0.146-0.008-0.289-0.011-0.431-0.011c-2.145,0-4.195,0.817-5.484,2.187
	c-0.875,0.925-1.322,2.022-1.26,3.092c0.122,2.081,2.235,3.654,5.023,3.738h0.101l0.034,0.253L31.312,113
	c3.447-0.116,6.97-1.503,9.919-3.904l0.256-0.216c0.237-0.196,0.474-0.391,0.698-0.602c0.053-0.05,0.104-0.102,0.156-0.152
	c-0.91-0.549-2.051-1.255-2.81-1.782C36.725,104.767,34.958,104.223,33.973,104.047z M80.865,105.792
	c-0.313,0-0.572,0.039-0.699,0.061c-3.868,0.959-9.019,4.975-13.422,10.479c-0.611,0.764-1.186,1.524-1.711,2.266
	c0.343-0.08,0.67-0.158,0.981-0.238c9.685-2.436,16.7-7.113,16.683-11.123C82.684,106.043,81.693,105.792,80.865,105.792z M50,76
	C22.43,76,0,98.43,0,126c0,27.571,22.43,50,50,50c27.57,0,50-22.429,50-50C100,98.43,77.57,76,50,76z M85.258,109.813
	c-2.308,4.104-9.331,8.15-17.892,10.305c-1.253,0.316-2.538,0.588-3.82,0.81c-0.973,1.513-4.767,8.019-1.098,12.235
	c3.957-6.646,7.664-8.054,10.091-8.054c2.679,0,4.366,1.624,4.437,1.692c3.562,3.85-0.479,8.518-0.521,8.564
	c-2.101,2.35-4.836,3.592-7.913,3.592c-2.597,0-4.512-0.861-4.592-0.896c-0.153-0.067-0.304-0.136-0.453-0.207
	c-0.896,1.659-1.368,2.832-1.373,2.844c-6.942,15.975-20.085,17.699-25.413,17.699c-0.296,0-0.572-0.006-0.828-0.014
	c-0.857-0.037-1.36-0.238-1.54-0.611c-0.147-0.304-0.016-0.621,0.086-0.762c0.581-0.718,1.926-0.725,1.983-0.725
	c14.036-0.057,20.115-10.316,22.078-14.725c0.932-2.098,1.743-3.887,2.412-5.325c-5.218-4.241-3.791-11.01-2.769-14.09l-0.113,0.005
	l-8.832,1.901l-0.112,0.275c-0.012,0.032-0.036,0.091-0.066,0.172c-0.968,2.488-1.794,4.664-2.456,6.467
	c-0.021,0.058-2.205,6.001-6.462,10.55l-0.056,0.045c-0.423,0.478-0.9,0.955-1.382,1.387c-3.516,3.15-8.07,4.959-12.495,4.959
	c-3.172,0-6.001-0.933-8.182-2.696c-2.496-2.023-3.914-4.968-3.992-8.286c-0.104-4.346,2.037-8.801,5.875-12.223
	c3.145-2.805,7.028-4.541,10.937-4.891c0.212-0.01,0.383-0.02,0.555-0.021h0.15c3.343,0,6.127,1.714,7.296,4.48l6.358-1.371
	c0.633-1.367,1.261-2.702,1.871-3.975l0.037-0.067c1.995-3.839,4.497-7.223,7.442-10.069c-2.652,0.758-5.934,0.849-8.844,0.211
	l-1.282,1.372c-0.125,0.14-0.257,0.282-0.391,0.423l-0.145,0.146c-0.24,0.251-0.466,0.472-0.685,0.677
	c-2.993,2.804-6.739,4.657-10.55,5.22c-0.63,0.119-1.272,0.18-1.899,0.18l-0.062-0.001l-0.032-0.253l-0.031,0.252
	c-0.073,0-0.136,0.001-0.196-0.003c-4.264-0.139-7.509-2.915-7.711-6.603c-0.104-1.905,0.606-3.812,2-5.369
	c1.564-1.748,3.797-2.877,6.286-3.183l0.108-0.014c0.129-0.014,0.261-0.026,0.4-0.036l0.1-0.007c0.114-0.01,0.234-0.017,0.354-0.02
	c0.211-0.009,0.431-0.015,0.653-0.015c5.352,0,10.232,2.729,10.438,2.844c0.395,0.201,0.842,0.408,1.361,0.625
	c0,0,0.246,0.099,0.59,0.227c4.045-3.839,12.013-10.363,20.717-11.812c0.725-0.12,1.117-0.012,1.361,0.272
	c0.212,0.248,0.175,0.535,0.17,0.566c-0.128,0.775-1.09,0.953-1.132,0.961c-7.999,1.883-14.64,7.545-18.057,10.961
	c1.389,0.311,2.795,0.47,4.167,0.47c1.838,0,3.539-0.284,5.063-0.847v-0.008l0.172-0.061c0.058-0.02,0.232-0.088,0.822-0.32
	c1.159-0.848,2.4-1.627,3.656-2.299c0.21-0.096,0.517-0.202,0.864-0.202c0.326,0,0.626,0.099,0.892,0.29
	c0.03,0.021,0.221,0.16,0.23,0.393c0.005,0.188-0.104,0.368-0.324,0.539c-5.727,4.278-10.379,10.312-13.487,17.48l8.86-1.908
	c0.689-1.227,1.502-2.486,2.408-3.734c5.636-7.771,13.577-13.197,19.312-13.197c1.645,0,2.992,0.447,4.005,1.33
	c0.226,0.192,0.439,0.42,0.635,0.674c0.248,0.349,0.432,0.717,0.551,1.102C86.201,107.245,86.001,108.49,85.258,109.813z
	 M68.605,135.905c1.69,0,3.084-0.555,4.143-1.646l0.122-0.115c1.66-1.622,2.158-3.812,1.112-4.885
	c-0.371-0.381-0.903-0.582-1.54-0.582c-1.034,0-2.235,0.535-3.214,1.431l-0.119,0.112l-0.239-0.118l0.179,0.177l-0.058,0.057
	c-1.362,1.335-2.665,2.948-3.876,4.797c0.154,0.075,0.313,0.148,0.478,0.219C65.604,135.356,66.95,135.905,68.605,135.905z"/>
</svg>
